<svg class="img-fluid" id="outputsvg" xmlns="http://www.w3.org/2000/svg" style="transform: matrix(1, 0, 0, 1, -5.9929, 1.9171); transform-origin: 50% 50%; cursor: move; max-height: 364.36px;" width="712" height="629" viewBox="0 0 7120 6290"><g id="l6ZQCemu8f6wXBQ71TidHq1" fill="rgb(147,103,164)" style="transform: none;"><g><path id="p1CoCmSQxf" d="M3195 6269 c-324 -33 -663 -119 -950 -239 -196 -82 -241 -110 -175 -110 22 0 30 -5 30 -18 0 -10 8 -18 18 -19 9 0 52 -4 95 -8 72 -7 77 -7 77 11 1 18 1 18 15 0 11 -14 40 -21 142 -32 328 -36 576 -91 953 -209 63 -20 250 -70 415 -111 165 -40 316 -78 335 -83 153 -42 891 -214 990 -231 69 -12 229 -39 355 -61 376 -64 459 -80 483 -95 19 -13 22 -13 22 2 0 13 3 14 14 5 8 -7 27 -11 41 -9 26 3 25 4 -37 78 -35 41 -83 95 -108 119 l-45 46 -3 -29 c-4 -30 39 -86 65 -86 7 0 13 -4 13 -10 0 -5 -9 -10 -20 -10 -14 0 -18 -5 -13 -16 5 -14 2 -16 -18 -11 -51 12 -304 58 -509 92 -118 19 -255 42 -305 51 -90 15 -1344 320 -1550 376 -60 16 -166 47 -235 68 -343 107 -657 174 -923 196 -75 7 -115 20 -89 31 20 8 14 23 -10 23 -12 0 -19 2 -16 5 5 5 266 105 274 105 2 0 4 -11 4 -25 0 -18 -5 -25 -20 -25 -30 0 -24 -28 8 -34 15 -3 95 -17 177 -31 307 -53 1145 -253 1555 -370 398 -114 637 -170 1160 -275 222 -45 410 -86 417 -92 10 -8 13 -4 13 15 0 36 -75 106 -114 107 -24 0 -27 -2 -16 -15 7 -9 11 -17 9 -20 -4 -3 -445 85 -766 154 -222 48 -495 116 -659 165 -227 68 -430 123 -629 171 -371 89 -884 205 -982 222 -57 10 -103 21 -103 25 0 5 5 8 10 8 23 0 8 19 -17 22 -19 2 9 13 87 35 109 30 200 50 173 37 -7 -3 -13 -20 -13 -37 l0 -32 133 -42 c373 -119 1386 -373 1802 -453 55 -11 249 -42 430 -70 182 -27 346 -54 365 -60 19 -5 51 -24 71 -42 69 -64 69 -64 69 -29 0 20 -5 31 -14 31 -7 0 -16 9 -19 20 -3 12 -14 20 -26 20 -12 0 -21 5 -21 11 0 6 -10 19 -22 30 -20 16 -20 18 -5 19 24 0 21 9 -10 36 -28 24 -28 24 -33 3 l-5 -20 -22 20 c-12 12 -29 21 -38 21 -8 0 -15 7 -15 15 0 8 -7 15 -15 15 -8 0 -15 5 -15 10 0 6 -7 10 -15 10 -8 0 -15 5 -15 10 0 6 -9 10 -19 10 -10 0 -21 7 -25 15 -4 10 1 15 15 15 30 0 15 15 -59 64 -161 103 -289 173 -444 241 -46 20 -92 40 -103 45 -210 95 -607 194 -899 225 -202 21 -236 20 -236 -5 0 -18 7 -20 58 -20 75 0 279 -24 417 -50 200 -37 548 -137 483 -139 -29 -1 -38 -16 -15 -24 6 -2 9 -7 6 -11 -8 -8 -980 152 -1024 169 -5 2 0 7 13 10 12 4 22 14 22 21 0 11 -17 14 -70 14 l-70 0 0 -39 0 -39 68 -16 c113 -26 320 -62 859 -152 506 -84 519 -87 595 -125 88 -44 88 -44 88 -24 0 12 4 13 27 2 20 -9 23 -13 10 -15 -9 -2 -17 -7 -17 -11 0 -7 109 -75 134 -84 6 -3 9 -7 6 -10 -8 -9 -627 111 -1055 204 -593 129 -1035 246 -992 264 28 12 19 25 -18 25 -33 0 -35 -2 -35 -33 0 -37 -7 -34 181 -97 64 -21 206 -61 315 -89 383 -96 1275 -282 1619 -337 96 -16 117 -23 170 -58 32 -22 54 -41 47 -44 -19 -6 -662 96 -837 133 -423 90 -1093 256 -1525 378 -199 56 -222 65 -202 76 32 17 27 31 -10 32 l-33 1 35 9 c79 19 312 50 418 56 100 5 112 8 112 25 0 16 -8 18 -67 17 -38 -1 -104 -5 -148 -10z m-988 -355 c-2 -2 -25 -1 -50 2 l-47 7 47 22 48 22 3 -25 c2 -13 2 -26 -1 -28z m2773 -9 c0 -8 -4 -15 -10 -15 -5 0 -10 7 -10 15 0 8 5 15 10 15 6 0 10 -7 10 -15z m1010 -771 c0 -14 -3 -14 -15 -4 -8 7 -15 14 -15 16 0 2 7 4 15 4 8 0 15 -7 15 -16z"></path><path id="pDhFnOFoW" d="M1945 5888 c-89 -46 -290 -173 -300 -188 -3 -5 1 -10 9 -10 9 0 16 -7 16 -15 0 -8 -9 -15 -20 -15 -16 0 -20 -7 -20 -31 l0 -30 44 31 43 31 244 -41 c486 -82 988 -180 1164 -228 495 -134 638 -171 1110 -287 281 -69 659 -163 840 -209 420 -107 858 -208 1050 -242 111 -20 154 -31 167 -45 20 -24 28 -24 29 -1 0 10 3 12 6 5 2 -7 15 -13 28 -13 18 0 22 4 18 20 -3 11 -9 20 -14 20 -5 0 -8 3 -7 8 4 10 -44 92 -54 92 -4 0 -8 -8 -9 -17 0 -11 -3 -13 -6 -5 -2 6 -15 12 -28 12 -18 0 -22 -4 -18 -21 5 -19 3 -20 -33 -14 -304 53 -814 170 -1404 323 -190 49 -498 126 -685 171 -385 92 -624 154 -935 241 -118 34 -303 78 -410 100 -252 51 -839 160 -902 167 -32 4 -48 10 -48 20 0 9 9 14 28 12 46 -4 62 0 62 16 0 11 -12 15 -47 16 -27 0 -42 3 -35 6 6 2 12 11 12 19 0 8 10 14 25 14 14 0 25 5 25 10 0 6 7 10 15 10 10 0 15 -10 15 -30 0 -28 3 -30 35 -30 21 0 37 -6 43 -16 7 -12 54 -21 208 -40 109 -13 217 -26 239 -29 70 -8 401 -82 695 -154 408 -100 904 -213 1125 -256 370 -73 633 -127 875 -180 135 -30 351 -73 480 -95 129 -21 289 -49 355 -60 66 -11 128 -25 138 -30 14 -8 17 -6 17 10 0 13 7 20 19 20 27 0 17 28 -29 81 -34 39 -39 41 -40 22 0 -16 -6 -23 -20 -23 -11 0 -20 -7 -20 -15 0 -21 -24 -19 -237 20 -103 18 -244 43 -313 55 -69 11 -246 47 -395 80 -148 32 -340 72 -425 89 -609 120 -967 199 -1530 337 -535 131 -729 170 -1000 200 -143 16 -195 29 -162 41 18 7 15 23 -5 24 -14 0 -13 3 5 11 13 7 22 20 22 35 0 28 -4 28 -55 1z m-173 -158 c-3 -21 -10 -30 -23 -30 -11 0 -19 5 -19 10 0 6 7 10 15 10 8 0 15 9 15 20 0 11 4 20 8 20 5 0 7 -13 4 -30z"></path><path id="pThI7Lk5i" d="M1563 5645 l-28 -24 38 -1 c33 0 37 3 37 25 0 31 -11 32 -47 0z"></path><path id="prG45sEHg" d="M1493 5554 c-7 -3 -13 -11 -13 -17 0 -7 -15 -19 -33 -27 -20 -9 -33 -24 -35 -37 -2 -15 -10 -23 -23 -23 -51 0 -80 -78 -41 -113 35 -32 395 -175 485 -192 67 -13 67 -13 67 10 0 31 -16 42 -80 50 -55 7 -223 59 -296 91 -131 58 -153 70 -153 81 -1 12 37 53 49 53 3 0 19 -13 36 -28 23 -21 60 -36 140 -56 60 -16 158 -46 217 -67 121 -43 147 -46 203 -23 37 16 287 44 392 44 29 0 76 -9 105 -19 171 -62 210 -78 282 -115 44 -22 124 -69 178 -104 117 -77 188 -106 424 -172 98 -27 266 -77 373 -110 129 -40 289 -79 472 -116 153 -30 346 -73 430 -95 369 -95 617 -151 948 -213 182 -35 691 -117 802 -131 35 -4 58 -12 62 -21 9 -23 26 -16 26 11 0 18 5 25 20 25 19 0 19 2 7 32 -15 37 -34 47 -40 21 -3 -14 -6 -12 -11 10 -9 31 -49 40 -44 10 4 -25 -54 -28 -178 -8 -708 110 -951 158 -1585 315 -173 43 -420 99 -548 125 -128 25 -305 69 -394 96 -89 28 -263 79 -387 115 -202 58 -347 113 -382 144 -96 83 -394 221 -508 235 -74 9 -420 -21 -469 -41 -41 -16 -93 -9 -152 22 -29 15 -310 94 -334 94 -8 0 -25 10 -36 21 l-22 22 37 33 c21 19 40 34 43 34 8 0 74 -18 166 -46 91 -28 147 -31 147 -9 0 9 9 15 25 15 14 0 25 -6 25 -14 0 -11 36 -13 193 -12 203 1 244 -4 472 -56 200 -45 521 -157 830 -288 194 -82 323 -126 504 -169 173 -42 679 -153 891 -195 96 -19 351 -75 565 -125 398 -92 480 -108 828 -161 109 -16 203 -32 208 -36 5 -3 16 -18 24 -35 9 -16 20 -29 25 -29 20 0 9 56 -22 122 -26 52 -38 68 -55 68 -16 0 -20 -5 -16 -20 3 -11 10 -20 16 -20 8 0 8 -3 0 -11 -8 -8 -65 -2 -204 20 -359 58 -433 72 -804 157 -203 47 -487 110 -630 139 -414 86 -891 193 -1008 226 -153 43 -190 57 -404 148 -105 44 -196 81 -201 81 -5 0 -65 22 -133 49 -249 98 -486 161 -736 197 -104 15 -152 16 -325 8 -185 -8 -209 -7 -268 10 -72 21 -128 28 -147 20z"></path><path id="pWj62HPLK" d="M1217 5312 c-10 -10 -17 -32 -17 -49 0 -28 4 -31 83 -57 108 -37 115 -42 62 -41 -25 0 -45 5 -45 11 0 5 -40 16 -90 23 -80 12 -90 16 -90 35 -1 18 -4 17 -31 -14 l-30 -35 31 -3 c40 -4 41 -32 1 -32 -23 0 -31 -5 -34 -22 -3 -16 -5 -12 -6 12 l-1 34 -45 -44 c-25 -24 -45 -48 -45 -53 0 -5 -18 -31 -40 -57 -22 -26 -40 -51 -40 -55 0 -3 -7 -13 -15 -21 -22 -22 -18 -34 10 -34 15 0 25 6 25 14 0 8 7 16 15 20 10 3 15 -1 15 -13 0 -14 10 -20 39 -25 22 -3 41 -10 43 -16 1 -5 46 -18 100 -29 192 -39 386 -109 556 -203 50 -28 92 -56 92 -63 0 -6 18 -29 40 -50 57 -56 53 -19 -5 50 -63 73 -217 163 -413 239 -107 42 -283 93 -353 102 -54 7 -67 17 -49 39 10 12 9 15 -4 15 -11 0 -16 9 -16 30 0 21 5 30 17 30 9 0 25 7 35 17 17 15 18 15 18 -3 0 -17 14 -23 90 -38 50 -10 90 -21 90 -25 0 -4 28 -15 63 -25 165 -45 299 -112 392 -196 250 -228 342 -287 515 -329 127 -30 265 -42 471 -39 l184 3 194 -58 c186 -55 522 -134 661 -156 235 -38 326 -54 334 -62 6 -6 4 -9 -6 -9 -14 0 -28 -27 -28 -57 0 -8 15 -13 40 -13 29 0 40 4 40 15 0 21 66 20 77 0 6 -10 40 -20 93 -29 129 -21 298 -71 395 -116 11 -5 55 -25 97 -44 42 -19 133 -67 203 -106 122 -68 132 -72 258 -95 129 -23 340 -69 738 -159 278 -63 674 -124 702 -108 5 2 -3 17 -18 32 -23 24 -38 29 -98 35 -228 21 -426 58 -942 176 -143 33 -330 73 -415 89 -133 25 -164 34 -215 65 -95 58 -349 181 -436 212 -86 31 -104 49 -36 38 438 -71 841 -165 1612 -376 261 -72 302 -81 408 -86 74 -4 117 -2 117 4 0 5 -11 20 -24 32 -21 20 -40 24 -153 31 -108 8 -158 18 -328 65 -923 256 -1223 323 -2040 459 -536 89 -884 164 -1150 247 -111 35 -147 42 -246 46 -131 6 -189 -1 -189 -22 0 -8 -9 -15 -20 -15 -11 0 -20 6 -20 14 0 25 -114 38 -123 14 -4 -10 -7 -10 -14 -1 -5 7 -49 20 -99 28 -195 34 -270 72 -454 235 -173 152 -240 200 -345 243 -71 29 -213 73 -270 83 -63 11 -68 16 -39 47 15 17 32 26 42 23 9 -3 46 -12 82 -21 74 -19 130 -36 145 -46 6 -3 48 -19 95 -34 190 -62 323 -139 438 -253 187 -184 324 -251 549 -269 73 -5 83 -4 83 11 0 12 9 16 34 16 19 0 41 3 50 6 12 4 16 0 16 -15 0 -28 29 -27 150 4 124 32 173 31 284 -4 50 -16 145 -41 211 -55 66 -14 194 -47 285 -74 412 -122 890 -243 1245 -316 94 -19 352 -75 575 -125 473 -105 811 -173 1000 -201 74 -11 149 -22 167 -25 27 -5 31 -3 26 13 -2 11 -16 25 -29 32 -31 17 -31 34 1 26 25 -6 35 7 14 19 -6 4 -8 13 -5 20 2 7 -8 24 -22 37 -23 21 -66 33 -287 77 -143 29 -458 94 -700 146 -483 103 -505 107 -875 166 -412 65 -581 98 -636 124 -28 13 -140 47 -250 74 -516 131 -570 147 -1039 312 -82 28 -179 70 -215 92 -155 95 -217 126 -306 152 -85 26 -119 45 -79 45 21 0 19 28 -2 33 -10 3 1 5 23 6 53 1 146 -16 154 -29 3 -5 26 -14 51 -20 88 -19 104 -23 109 -29 3 -4 37 -25 75 -48 39 -23 98 -68 133 -101 41 -39 77 -63 105 -71 23 -7 146 -45 272 -86 548 -175 626 -197 842 -235 95 -16 345 -68 555 -115 423 -93 543 -116 758 -145 299 -40 361 -52 595 -115 389 -104 503 -129 641 -141 l79 -7 -29 32 c-17 17 -43 33 -60 35 -17 3 -68 9 -114 15 -108 14 -307 59 -512 116 -204 57 -446 106 -695 140 -240 33 -328 50 -705 135 -168 38 -381 83 -475 100 -258 48 -445 97 -850 225 -355 112 -372 119 -415 159 -134 124 -286 200 -445 221 -43 6 -47 9 -32 20 9 7 17 15 17 19 0 11 -72 6 -135 -9 -33 -8 -75 -15 -92 -15 -23 0 -33 -5 -33 -15 0 -8 7 -15 15 -15 29 0 15 -15 -32 -34 l-47 -19 -130 43 c-72 24 -181 65 -242 92 -60 26 -125 51 -142 54 -18 4 -47 20 -63 35 -36 33 -78 38 -102 11z m129 -79 c-1 -1 -25 5 -54 14 -49 16 -51 18 -36 34 16 17 18 17 54 -14 21 -17 37 -33 36 -34z m-17 -89 c2 -2 2 -6 -1 -9 -9 -9 -58 6 -58 17 0 9 49 3 59 -8z m222 -64 c155 -36 226 -66 354 -150 195 -128 460 -212 853 -270 45 -7 82 -16 82 -21 0 -5 -9 -9 -19 -9 -11 0 -62 -11 -113 -25 -67 -18 -118 -25 -185 -25 -82 0 -93 -2 -93 -17 -1 -17 -2 -17 -15 0 -10 14 -36 21 -92 28 -139 18 -276 76 -338 144 -21 24 -147 138 -184 168 -70 56 -222 139 -318 172 -29 11 -53 23 -53 28 0 4 8 6 18 3 9 -3 56 -15 103 -26z m537 15 c-3 -3 -27 -14 -54 -24 -27 -10 -58 -22 -69 -26 -15 -6 -17 -5 -10 3 6 7 35 21 65 31 57 20 77 25 68 16z m92 -105 c3 -4 41 -17 84 -29 93 -26 134 -45 278 -133 59 -36 127 -71 152 -78 49 -13 66 -37 19 -25 -16 4 -91 18 -167 31 -151 26 -297 62 -388 93 -73 25 -258 112 -258 121 0 4 36 5 79 2 97 -5 151 3 151 24 0 11 6 13 23 8 12 -4 24 -10 27 -14z m969 -412 c28 -6 51 -16 51 -21 0 -5 -10 -7 -22 -4 -13 3 -40 9 -60 12 -21 4 -38 11 -38 16 0 12 8 11 69 -3z m91 -28 c0 -5 -7 -10 -15 -10 -8 0 -15 5 -15 10 0 6 7 10 15 10 8 0 15 -4 15 -10z m1690 -420 c0 -5 -9 -10 -20 -10 -11 0 -20 5 -20 10 0 6 9 10 20 10 11 0 20 -4 20 -10z m254 -25 c166 -18 323 -55 571 -135 165 -54 172 -56 163 -65 -11 -11 -978 205 -978 219 0 5 21 6 48 2 26 -3 114 -13 196 -21z m840 -160 c52 -3 296 -59 296 -68 0 -6 -21 -8 -53 -4 -73 7 -298 68 -291 79 3 4 10 5 17 1 6 -4 20 -7 31 -8z"></path><path id="pDhcXPXvd" d="M2278 5252 c-36 -7 -18 -30 30 -37 26 -4 94 -27 152 -52 58 -25 128 -55 155 -67 139 -59 414 -218 441 -254 15 -20 878 -255 1237 -337 84 -19 346 -68 582 -110 473 -84 659 -119 902 -171 89 -18 178 -34 198 -34 20 0 138 -14 262 -31 124 -17 227 -28 229 -26 3 2 -8 18 -24 34 -24 27 -37 32 -102 38 -41 5 -86 9 -100 11 -14 2 -68 8 -120 13 -156 16 -221 27 -586 101 -192 38 -506 97 -699 129 -526 90 -685 126 -1370 313 l-410 111 -91 62 c-103 71 -238 143 -435 234 -128 58 -210 82 -251 73z"></path><path id="p1Aww8jNSH" d="M2095 5230 c-49 -10 -107 -21 -127 -25 -24 -4 -38 -11 -38 -20 0 -21 64 -19 179 5 52 11 105 20 118 20 16 0 23 6 23 20 0 25 -29 25 -155 0z"></path><path id="ptfyxODwc" d="M6190 4871 c0 -22 -5 -30 -20 -33 -20 -3 -19 -5 9 -38 22 -26 30 -30 31 -17 0 21 20 23 20 2 0 -9 9 -15 25 -15 29 0 26 14 -17 77 -37 55 -48 61 -48 24z"></path><path id="pNdapz0Qe" d="M799 4850 c-38 -50 -43 -70 -19 -70 13 0 20 -7 20 -20 0 -13 -7 -20 -19 -20 -11 0 -22 -6 -24 -12 -3 -8 -6 -6 -6 5 -2 29 -15 19 -49 -36 -36 -60 -38 -67 -17 -67 10 0 15 -10 15 -30 0 -37 12 -39 30 -5 16 30 20 30 62 6 18 -11 71 -32 118 -47 47 -15 168 -63 270 -106 208 -90 318 -133 435 -173 80 -28 156 -62 165 -75 7 -9 156 -72 270 -113 52 -19 176 -71 275 -115 152 -68 264 -110 393 -147 43 -13 64 -42 56 -81 -6 -32 -3 -39 40 -80 33 -31 55 -44 75 -44 35 0 81 35 81 61 0 24 12 24 91 0 35 -11 120 -34 189 -51 236 -58 319 -91 437 -173 167 -115 228 -148 372 -203 76 -29 240 -64 308 -65 45 -1 43 -2 -32 -16 -99 -17 -220 -11 -297 16 -31 11 -96 45 -144 77 -232 153 -431 236 -770 321 l-147 36 -17 -20 c-34 -43 -115 -66 -164 -47 -9 3 -20 22 -26 43 -13 48 -85 134 -148 177 -63 42 -130 67 -250 94 -100 22 -204 60 -397 145 -101 44 -478 200 -520 215 -55 19 -277 112 -513 214 -84 36 -159 66 -166 66 -8 0 -16 5 -18 11 -6 18 -98 24 -109 8 -7 -11 -9 -10 -9 4 0 32 -18 18 -44 -35 l-27 -53 22 -3 c12 -2 26 2 30 10 7 10 9 9 9 -4 0 -10 4 -18 8 -18 10 0 43 56 36 62 -3 3 1 8 8 10 7 3 63 -16 123 -43 160 -70 173 -75 255 -110 41 -17 93 -39 115 -49 22 -10 69 -30 105 -45 36 -15 84 -36 107 -46 23 -10 47 -19 53 -19 6 0 203 -80 438 -179 339 -142 453 -184 553 -209 198 -48 239 -73 275 -170 26 -70 51 -100 105 -127 72 -37 133 -34 198 9 l50 34 153 -38 c297 -75 522 -169 703 -294 177 -123 290 -143 558 -102 92 14 172 26 177 26 6 0 10 -10 10 -22 1 -42 20 -54 82 -50 51 3 58 7 67 30 9 25 9 25 10 5 1 -33 28 -28 36 6 11 51 25 55 123 42 48 -7 227 -41 397 -77 538 -113 895 -182 1050 -204 83 -11 165 -23 183 -26 33 -5 33 -5 18 19 -25 37 -49 44 -246 72 -183 26 -340 56 -1005 194 -187 38 -365 73 -396 76 -31 3 -65 12 -75 19 -16 12 -17 17 -6 41 12 25 16 27 53 21 23 -4 69 -18 102 -32 46 -20 95 -29 192 -39 71 -7 182 -24 245 -38 506 -114 1045 -216 1140 -217 l25 0 -31 31 c-30 29 -40 32 -194 55 -89 12 -198 30 -243 39 -163 32 -566 116 -742 154 -100 22 -221 42 -271 45 -71 3 -109 12 -165 34 -41 17 -83 33 -94 37 -16 6 -10 11 35 26 97 32 100 31 494 -75 94 -25 246 -57 340 -71 94 -14 227 -39 296 -55 175 -40 423 -87 503 -96 73 -7 83 1 45 36 -25 23 -36 26 -128 35 -85 8 -333 56 -492 94 -70 17 -192 40 -270 52 -141 20 -444 85 -463 99 -5 4 -43 15 -82 25 -66 17 -96 35 -59 35 43 0 336 -49 719 -121 437 -81 725 -129 785 -129 22 0 32 -5 32 -15 0 -8 7 -15 15 -15 10 0 15 11 15 35 0 24 -5 35 -15 35 -8 0 -15 -7 -15 -16 0 -8 -4 -12 -10 -9 -5 3 -10 15 -10 25 0 41 -52 66 -172 84 -278 43 -842 140 -1044 180 -408 82 -644 149 -1159 329 -111 39 -216 62 -350 77 -132 15 -185 13 -185 -5 0 -22 -176 -22 -201 1 -10 9 -44 17 -80 20 -79 7 -152 27 -238 66 -115 52 -212 88 -273 103 l-58 13 -15 -29 c-9 -16 -15 -32 -14 -36 0 -5 -13 -12 -30 -17 -34 -10 -42 -36 -12 -36 11 0 23 -4 26 -10 3 -5 24 -10 46 -10 38 0 39 -1 33 -27 -3 -16 -12 -45 -20 -66 -15 -41 -18 -77 -6 -77 15 0 29 16 41 48 8 17 14 32 16 32 1 0 82 -18 181 -40 201 -45 362 -101 408 -140 17 -14 47 -37 66 -50 19 -13 37 -27 40 -30 18 -21 205 -132 305 -181 177 -86 418 -159 526 -159 33 0 39 -19 8 -27 -14 -4 -19 -12 -16 -24 4 -15 0 -19 -19 -19 -17 0 -24 6 -24 20 0 18 -7 20 -65 20 -37 0 -65 -4 -65 -10 0 -15 -19 -12 -36 5 -9 8 -32 16 -52 17 -64 3 -76 5 -103 16 -15 6 -46 16 -69 22 -83 22 -319 144 -350 180 -11 13 -131 81 -201 114 -43 21 -162 59 -284 90 -115 30 -228 62 -251 70 l-41 14 -16 -33 c-9 -19 -25 -39 -36 -44 -17 -10 -21 -6 -36 39 -9 27 -21 52 -26 55 -23 15 -6 25 31 19 l40 -7 0 58 c0 48 -3 58 -20 62 -11 3 -20 12 -20 19 0 9 -11 14 -29 14 -24 0 -34 8 -55 47 -15 25 -24 48 -22 50 2 2 18 -11 35 -29 28 -30 31 -31 31 -11 0 12 -4 25 -10 28 -5 3 -10 21 -10 40 0 56 -74 102 -220 135 -84 19 -88 21 -65 29 163 61 205 70 205 47 0 -9 20 -37 45 -61 l44 -45 86 0 c83 0 85 0 85 24 0 23 -2 24 -32 16 -51 -14 -139 1 -152 25 -38 69 -101 128 -115 108 -9 -14 -139 -64 -186 -72 -31 -5 -41 -11 -43 -29 -2 -12 -10 -22 -19 -22 -24 0 -190 58 -270 95 -80 37 -243 141 -243 156 0 5 -10 9 -21 9 -18 0 -19 -2 -9 -15 29 -35 -6 -23 -152 52 -84 43 -173 87 -198 98 -25 10 -85 36 -135 58 -108 47 -292 116 -395 148 -41 13 -78 28 -82 34 -5 6 -8 5 -8 -2 0 -7 -9 -13 -20 -13 -14 0 -20 -7 -20 -24 0 -13 -7 -27 -16 -30 -22 -9 -31 -7 -16 3 8 5 12 22 10 42 l-3 34 -26 -35z m176 -50 l20 -9 -20 0 c-11 0 -29 4 -40 9 l-20 9 20 0 c11 0 29 -4 40 -9z m-50 -40 c187 -40 255 -61 365 -111 47 -21 136 -52 198 -69 133 -35 220 -77 271 -128 20 -21 49 -47 65 -60 16 -12 27 -24 24 -27 -7 -8 -445 156 -575 216 -24 10 -45 19 -48 19 -3 0 -47 20 -97 45 -89 45 -159 71 -245 94 -27 8 -43 18 -43 27 0 10 6 13 18 10 9 -3 40 -10 67 -16z m-64 -54 c24 -13 78 -34 119 -47 41 -12 129 -48 195 -79 202 -96 611 -253 940 -360 55 -18 193 -65 307 -104 195 -67 208 -72 214 -98 3 -17 12 -28 22 -28 12 0 13 -3 5 -8 -10 -6 -7 -19 12 -53 l24 -46 -117 35 c-64 18 -181 63 -259 98 -135 61 -510 214 -524 214 -4 0 -38 18 -75 40 -38 22 -98 50 -134 61 -81 27 -343 132 -512 206 -70 30 -133 56 -140 57 -7 2 -24 8 -38 14 -14 6 -43 16 -65 22 -57 15 -72 25 -57 43 7 7 9 17 5 20 -3 4 -1 7 5 7 7 0 12 7 12 15 0 21 10 19 61 -9z m1124 -348 c80 -40 145 -76 145 -80 0 -8 -92 22 -141 47 -106 53 -182 105 -154 105 3 0 70 -33 150 -72z m1053 -329 c23 -7 42 -16 42 -21 0 -11 -5 -10 -64 5 -27 7 -52 19 -54 26 -3 9 2 11 14 8 11 -3 38 -11 62 -18z m-281 -94 c19 -19 40 -35 48 -35 8 0 15 -4 15 -10 0 -15 -53 -12 -77 5 -24 17 -48 75 -31 75 6 0 26 -16 45 -35z m393 -10 c338 -85 481 -147 650 -279 74 -58 186 -134 237 -160 52 -26 225 -86 249 -86 8 0 14 -5 14 -10 0 -15 -56 -4 -164 31 -208 69 -409 179 -602 331 -76 59 -222 114 -416 158 -76 16 -140 30 -143 30 -3 0 -5 5 -5 10 0 16 34 12 180 -25z m720 -49 c0 -17 30 -26 87 -26 77 0 267 -39 373 -76 304 -106 517 -175 618 -200 116 -30 149 -50 63 -38 -40 5 -62 1 -127 -25 -150 -58 -194 -66 -384 -66 -133 0 -192 4 -248 18 -99 24 -223 70 -291 108 -48 27 -215 146 -274 195 -11 9 -48 31 -83 51 -35 19 -64 38 -64 41 0 4 67 6 150 4 130 -3 150 -1 150 12 0 9 7 16 15 16 8 0 15 -6 15 -14z m-953 -194 c-27 -26 -27 -26 -27 -4 0 15 6 22 20 22 11 0 20 5 20 12 0 6 3 8 7 4 4 -3 -5 -19 -20 -34z m2063 -211 c15 -29 12 -41 -8 -41 -10 0 -40 -7 -65 -16 l-47 -16 1 -54 c1 -30 -1 -57 -4 -61 -4 -3 -7 8 -7 26 0 33 0 33 -43 30 l-42 -4 4 38 c3 36 2 37 -30 37 -25 1 -10 7 51 24 47 13 101 30 120 39 47 21 57 20 70 -2z m-630 -91 c0 -5 -9 -10 -20 -10 -11 0 -20 5 -20 10 0 6 9 10 20 10 11 0 20 -4 20 -10z m60 -10 c0 -5 -9 -10 -20 -10 -11 0 -20 5 -20 10 0 6 9 10 20 10 11 0 20 -4 20 -10z m100 -10 c0 -5 -9 -10 -20 -10 -11 0 -20 5 -20 10 0 6 9 10 20 10 11 0 20 -4 20 -10z m150 0 c0 -5 -9 -10 -20 -10 -11 0 -20 5 -20 10 0 6 9 10 20 10 11 0 20 -4 20 -10z m43 -47 c-16 -3 -23 -11 -23 -28 0 -28 -3 -31 -55 -38 -22 -3 -32 -3 -22 -1 12 4 17 16 17 40 l0 34 53 -1 c28 -1 42 -4 30 -6z m107 -26 c0 -23 -22 -38 -37 -26 -18 15 -16 27 5 32 29 8 32 7 32 -6z m40 -66 c0 -16 -7 -34 -15 -41 -12 -10 -15 -9 -15 6 0 11 -3 29 -6 42 -5 18 -2 22 15 22 16 0 21 -6 21 -29z m-82 -23 c14 -23 14 -32 2 -67 -16 -49 -26 -52 -35 -11 -3 16 -22 43 -41 59 l-34 30 32 10 c46 13 57 10 76 -21z"></path><path id="poZyt5M34" d="M580 4365 c0 -39 7 -43 25 -18 12 16 16 15 51 -9 36 -25 94 -53 217 -107 27 -11 218 -71 425 -132 420 -124 413 -121 502 -175 81 -49 138 -73 419 -174 208 -74 404 -162 437 -195 8 -7 14 -22 14 -32 0 -44 96 -164 160 -201 25 -14 47 -27 49 -28 2 -2 -4 -15 -13 -29 -16 -25 -16 -25 13 -25 31 0 41 14 41 60 0 24 -7 31 -49 49 -27 11 -54 21 -60 21 -14 0 -57 76 -77 134 -21 62 -61 92 -219 170 -128 63 -199 91 -503 200 -86 31 -196 79 -250 109 -70 40 -141 69 -257 105 -250 78 -470 142 -492 142 -10 0 -58 16 -106 35 -48 19 -94 35 -102 35 -8 0 -15 5 -15 10 0 6 -5 10 -11 10 -15 0 -138 60 -145 71 -3 5 -16 9 -30 9 -21 0 -24 -5 -24 -35z"></path><path id="pHPLIizCh" d="M505 4294 c-27 -60 -31 -84 -15 -84 5 0 7 -21 3 -50 -5 -45 -4 -50 14 -50 10 0 23 -4 29 -9 5 -5 41 -19 79 -31 39 -13 133 -47 210 -77 77 -30 187 -72 245 -94 58 -23 290 -114 515 -203 567 -225 549 -218 845 -323 332 -117 310 -107 310 -138 0 -27 -10 -31 -38 -15 -9 6 -100 39 -202 74 -102 36 -327 115 -500 176 -173 62 -541 188 -816 281 -276 93 -530 182 -565 198 -35 16 -81 32 -101 36 -22 4 -38 13 -38 21 0 8 -7 14 -15 14 -11 0 -12 5 -5 26 14 37 12 84 -3 84 -9 0 -27 -41 -47 -107 -35 -112 -39 -141 -19 -153 8 -6 8 -20 0 -59 -13 -63 -14 -141 -2 -141 5 0 11 6 13 12 4 10 11 10 34 -1 16 -7 90 -32 165 -56 185 -58 557 -196 709 -262 69 -30 170 -73 225 -95 55 -22 136 -57 180 -77 44 -21 91 -42 105 -46 14 -4 93 -37 175 -73 83 -35 235 -94 339 -129 259 -89 286 -105 265 -160 -11 -31 39 -88 106 -121 93 -45 115 -57 115 -66 0 -14 -76 0 -124 24 -53 27 -132 100 -124 115 2 3 -9 20 -24 39 -20 25 -50 42 -125 71 -54 21 -197 78 -318 126 -121 48 -299 119 -395 157 -654 260 -1152 442 -1211 442 -16 0 -29 4 -29 9 0 13 -46 22 -75 15 -19 -5 -25 -13 -25 -33 0 -16 3 -21 8 -14 14 23 482 -133 972 -323 107 -42 251 -98 321 -125 69 -27 133 -49 142 -49 9 0 17 -4 17 -9 0 -4 24 -17 53 -28 28 -11 153 -61 277 -110 124 -50 253 -101 288 -114 52 -20 69 -33 103 -78 22 -29 38 -55 35 -58 -2 -3 -26 5 -53 17 -26 12 -113 46 -193 75 -80 29 -194 74 -255 100 -60 26 -166 67 -235 92 -69 24 -163 58 -210 75 -47 17 -146 58 -220 90 -74 33 -231 93 -350 133 -118 40 -253 87 -300 105 -151 58 -324 111 -377 117 -61 7 -59 -2 -38 133 8 52 15 105 15 118 0 32 -27 28 -34 -5 -13 -64 -35 -224 -42 -300 -6 -80 -6 -83 15 -83 19 0 21 6 23 63 0 34 3 47 5 30 4 -33 33 -48 33 -18 0 9 6 18 13 21 17 6 164 -40 367 -116 85 -32 247 -90 360 -128 113 -38 264 -95 335 -126 72 -32 186 -78 255 -103 222 -80 352 -130 515 -196 88 -35 210 -83 270 -107 61 -24 144 -58 185 -78 41 -19 95 -43 120 -54 49 -21 70 -42 70 -70 0 -16 -5 -18 -34 -13 -29 6 -39 2 -67 -24 -20 -20 -42 -31 -60 -31 -31 0 -33 -5 -31 -77 1 -18 -1 -33 -4 -33 -3 0 -29 11 -57 24 -29 14 -92 41 -142 61 -49 21 -119 51 -155 67 -36 16 -121 52 -190 78 -160 62 -305 119 -400 158 -155 64 -316 124 -409 154 -53 16 -123 41 -156 55 -198 82 -645 235 -723 248 -23 4 -49 14 -58 22 -18 19 -14 49 6 46 65 -7 186 -42 295 -83 72 -27 184 -69 250 -94 66 -24 248 -92 405 -150 157 -59 346 -129 420 -155 74 -27 191 -70 260 -96 69 -26 190 -71 270 -100 151 -55 164 -60 295 -119 78 -35 80 -36 83 -15 2 12 -2 26 -10 30 -10 7 -9 9 4 9 32 0 14 43 -42 101 -53 55 -60 59 -174 94 -65 20 -171 61 -235 90 -64 28 -127 56 -141 60 -14 4 -38 13 -55 20 -37 16 -357 150 -405 170 -232 94 -576 214 -795 277 -22 6 -45 16 -52 21 -6 4 -49 15 -95 23 -46 9 -117 22 -158 29 -41 8 -96 14 -122 15 l-48 0 0 -130 c0 -126 -1 -130 -21 -130 -21 0 -22 -3 -15 -87 7 -90 28 -236 47 -330 12 -61 35 -72 42 -20 4 31 4 31 5 -5 1 -23 7 -38 15 -38 9 0 11 -12 9 -40 -3 -24 -9 -40 -17 -40 -25 0 -22 -37 13 -148 24 -76 40 -112 50 -112 11 0 13 10 10 45 -4 34 -2 45 8 45 8 0 11 6 8 15 -4 11 0 15 16 15 22 0 323 -83 604 -166 81 -24 178 -51 215 -59 36 -9 120 -33 186 -55 66 -21 170 -53 230 -70 119 -34 261 -87 338 -126 172 -87 311 -210 353 -310 18 -43 46 -174 40 -189 -9 -23 32 -91 80 -133 60 -54 419 -264 554 -325 30 -14 118 -54 195 -90 77 -36 185 -83 240 -105 55 -22 150 -63 210 -90 126 -57 236 -92 485 -156 96 -24 222 -58 279 -75 57 -17 112 -31 122 -31 11 0 19 -4 19 -10 0 -5 -4 -10 -10 -10 -16 0 -11 -18 6 -22 9 -2 -5 -11 -30 -20 -44 -16 -46 -16 -46 1 0 12 -7 19 -22 19 -42 0 -430 118 -635 193 -215 78 -661 267 -916 388 -59 28 -111 51 -114 51 -3 0 -105 49 -227 109 -271 134 -287 147 -366 321 -91 201 -191 292 -472 432 -87 43 -159 78 -162 78 -2 0 -62 28 -132 61 -385 183 -551 249 -694 275 -102 18 -140 18 -140 -1 0 -9 -9 -15 -25 -15 -15 0 -25 -6 -25 -15 0 -16 14 -19 180 -34 172 -16 263 -46 573 -193 114 -54 210 -98 213 -98 22 0 422 -208 470 -244 69 -52 122 -129 176 -259 38 -92 106 -172 202 -241 36 -25 67 -46 70 -46 3 0 76 -35 163 -78 87 -43 182 -88 211 -100 29 -13 92 -41 140 -63 198 -93 248 -115 487 -216 273 -114 468 -191 558 -219 31 -10 57 -22 57 -27 0 -4 -8 -6 -17 -3 -10 3 -56 15 -103 26 -78 20 -272 81 -814 256 -369 119 -702 304 -881 488 -65 66 -99 127 -143 252 -16 44 -45 104 -66 134 -38 55 -127 132 -181 155 -16 7 -64 29 -105 48 -127 60 -190 84 -335 127 -166 51 -273 89 -459 164 -160 65 -248 91 -390 114 -77 13 -102 21 -104 33 -3 14 4 16 42 12 42 -5 46 -4 46 16 0 19 -5 21 -66 21 l-66 0 4 -40 c2 -28 0 -40 -9 -40 -19 0 -16 -21 12 -84 25 -57 45 -73 45 -36 0 13 7 20 20 20 13 0 18 5 14 15 -4 9 1 18 12 22 11 3 22 11 26 17 7 11 118 -10 118 -23 0 -5 44 -19 98 -31 103 -24 144 -38 337 -118 66 -27 181 -69 255 -92 74 -23 182 -57 240 -77 182 -60 419 -184 402 -209 -1 -2 4 -17 12 -33 17 -31 77 -180 80 -196 9 -46 121 -182 215 -258 166 -137 264 -199 476 -303 197 -97 224 -107 915 -329 129 -41 312 -94 405 -117 94 -22 172 -43 175 -46 3 -3 -1 -7 -7 -9 -25 -9 -13 -23 20 -24 30 -1 30 -1 7 -8 -71 -22 -80 -22 -80 -3 0 10 -6 19 -12 19 -37 3 -316 57 -431 84 -356 84 -607 161 -842 259 -77 32 -194 79 -260 105 -143 57 -391 178 -457 223 -43 30 -118 133 -118 163 0 6 -8 23 -19 37 -10 15 -35 59 -56 97 -149 276 -308 402 -640 510 -188 61 -302 88 -540 130 -211 37 -265 51 -265 66 0 5 -4 9 -10 9 -5 0 -10 -8 -10 -17 0 -14 -2 -15 -9 -5 -4 8 -18 12 -30 10 l-22 -3 27 -52 c29 -60 44 -67 44 -23 0 28 2 30 28 24 15 -4 29 -10 32 -15 8 -11 71 -26 281 -64 109 -19 250 -49 315 -66 66 -17 126 -31 134 -31 8 -1 17 -4 20 -8 3 -4 39 -17 80 -29 245 -74 360 -161 480 -361 34 -58 63 -110 64 -115 1 -6 24 -50 51 -98 82 -147 139 -195 362 -306 175 -87 239 -116 354 -160 57 -21 142 -56 188 -76 126 -53 314 -120 469 -166 149 -43 489 -126 559 -136 48 -6 51 -10 26 -29 -31 -22 -4 -28 69 -16 39 7 73 11 75 8 13 -13 -423 -76 -529 -76 -51 0 -58 -2 -58 -20 0 -17 7 -20 48 -20 53 0 287 25 377 40 225 38 537 127 700 200 11 5 58 25 105 46 162 71 378 191 513 286 23 16 22 28 -3 28 -11 0 -20 5 -20 10 0 6 6 10 14 10 20 0 85 42 86 55 0 6 15 17 33 25 17 7 35 15 39 17 3 2 8 -3 10 -12 2 -12 8 -11 31 9 35 30 34 36 -5 37 -31 1 -31 2 -7 8 40 9 179 140 179 168 0 19 5 23 28 23 31 0 67 31 75 65 3 13 5 8 6 -13 l1 -32 26 16 c14 10 66 65 115 123 85 100 89 106 65 109 -36 5 -37 42 -1 42 17 0 25 -6 25 -17 1 -13 12 -5 40 26 41 47 56 81 36 81 -8 0 -11 11 -8 30 5 34 38 43 44 13 3 -14 13 -6 38 30 50 70 55 87 25 87 -16 0 -25 -6 -25 -15 0 -21 -20 -19 -20 3 -1 12 -8 8 -30 -18 -17 -19 -30 -38 -30 -43 0 -19 -31 -37 -63 -37 -20 0 -77 11 -129 24 -51 14 -172 37 -268 51 -306 46 -671 114 -792 148 -110 30 -136 43 -105 51 6 2 51 16 99 31 99 31 112 31 278 -13 127 -33 304 -59 665 -98 326 -34 387 -44 380 -62 -9 -24 39 -9 50 16 11 25 25 29 25 7 0 -8 3 -15 8 -15 10 0 58 79 55 91 -2 5 1 9 6 9 5 0 11 9 14 20 3 13 0 20 -10 20 -10 0 -12 6 -7 23 4 12 10 24 14 27 15 11 70 139 70 164 0 31 -12 33 -31 7 -14 -19 -19 -19 -154 -5 -417 42 -803 109 -1292 225 l-132 31 -23 -27 c-29 -33 -98 -48 -164 -36 -35 7 -58 20 -97 57 -72 69 -69 67 -155 127 -115 81 -286 173 -387 207 -50 17 -173 56 -275 86 -264 79 -386 119 -543 180 l-138 54 -127 1 c-111 0 -137 4 -207 27 -80 27 -80 27 -109 84 l-29 57 -141 59 c-78 33 -166 68 -196 80 -30 11 -167 63 -305 116 -281 107 -859 322 -1053 392 -70 26 -145 55 -167 65 -22 10 -78 32 -125 50 -47 17 -98 41 -113 52 -29 20 -30 40 -5 107 l9 25 17 -23 c10 -13 33 -25 55 -29 20 -3 37 -10 37 -14 0 -5 5 -9 11 -9 9 0 50 -17 136 -57 18 -8 119 -43 225 -78 218 -71 904 -305 1138 -388 85 -31 251 -90 369 -131 118 -42 216 -78 218 -80 2 -2 -1 -24 -8 -50 -15 -61 -8 -82 46 -138 80 -82 181 -105 258 -60 35 21 34 32 -3 32 l-30 0 22 22 c21 21 21 21 37 1 12 -14 21 -17 31 -11 11 7 56 -10 153 -57 186 -89 401 -174 647 -256 186 -61 563 -169 648 -185 27 -5 37 -14 49 -41 8 -20 16 -48 18 -64 7 -57 95 -152 156 -169 65 -19 99 7 99 74 0 84 52 85 367 7 370 -93 607 -136 1023 -187 124 -15 230 -31 237 -36 6 -5 9 -16 6 -24 -3 -9 2 -14 15 -14 13 0 22 9 28 28 5 21 8 23 11 9 6 -26 25 -16 40 21 12 28 11 32 -3 32 -12 0 -15 5 -9 23 13 39 18 117 7 117 -6 0 -12 -6 -15 -12 -3 -9 -11 -6 -28 9 -39 36 -142 51 -604 88 -233 18 -321 32 -595 94 -118 27 -246 54 -285 60 -88 14 -230 17 -316 7 -65 -8 -66 -8 -72 16 -4 13 -21 40 -39 61 -31 35 -42 39 -198 77 -91 23 -225 59 -299 81 -125 37 -189 62 -571 221 -264 109 -532 198 -599 198 -17 0 -34 -7 -39 -16 -12 -22 -48 -10 -56 18 -7 29 -5 30 30 16 60 -22 106 9 119 80 4 27 2 32 -14 32 -11 0 -23 -12 -31 -30 -20 -49 -32 -53 -81 -27 -31 17 -50 36 -66 70 -22 44 -74 89 -160 139 -15 9 -66 39 -113 68 -100 60 -320 169 -475 235 -60 25 -119 50 -130 55 -83 37 -160 65 -241 85 -51 14 -122 38 -156 54 -154 72 -280 122 -342 136 -37 9 -106 34 -154 56 -129 61 -142 66 -200 89 -65 25 -82 25 -82 3 0 -13 21 -26 73 -47 39 -16 135 -57 212 -91 77 -35 177 -72 221 -83 45 -11 101 -29 125 -40 24 -11 89 -41 144 -67 55 -26 141 -57 192 -71 157 -41 537 -202 743 -315 146 -79 260 -149 260 -159 0 -13 -472 153 -780 275 -74 29 -189 74 -255 100 -205 80 -341 134 -585 230 -269 106 -377 146 -472 175 -38 11 -68 25 -68 29 0 5 9 29 20 54 l20 45 29 -29 c34 -33 71 -39 71 -11 0 18 -20 32 -72 51 -19 7 -26 15 -22 26 4 10 0 15 -10 15 -10 0 -16 9 -16 25 0 41 -19 28 -45 -31z m4 -499 c71 -40 253 -112 641 -256 335 -123 620 -230 800 -298 74 -29 180 -68 235 -87 161 -58 365 -146 365 -158 0 -19 55 -80 99 -110 83 -58 162 -78 331 -86 154 -8 155 -8 270 -54 63 -26 288 -101 500 -167 399 -125 472 -155 631 -260 68 -46 95 -68 174 -145 36 -36 68 -57 106 -69 72 -24 73 -24 53 -46 -9 -10 -20 -36 -23 -56 -6 -37 -27 -56 -35 -31 -3 7 -7 31 -11 53 -5 30 -19 51 -53 85 -50 48 -54 50 -262 111 -437 128 -705 219 -955 324 -121 51 -251 104 -290 119 -38 15 -100 40 -138 57 -91 39 -118 38 -156 -8 l-30 -36 -45 24 c-26 13 -46 28 -46 33 0 4 -7 6 -15 2 -9 -3 -15 0 -15 9 0 8 6 15 14 15 28 0 25 40 -6 76 -40 46 -162 103 -383 179 -99 35 -244 90 -323 124 -78 33 -145 61 -149 61 -3 0 -56 23 -117 51 -61 28 -145 64 -186 81 -41 16 -88 35 -105 42 -16 8 -52 24 -80 36 -111 50 -151 66 -405 160 -146 54 -312 113 -370 130 -58 18 -107 34 -109 36 -7 6 10 94 19 94 4 0 36 -16 69 -35z m-19 -549 c119 -21 581 -157 684 -201 17 -7 67 -24 111 -38 125 -39 418 -157 925 -371 107 -46 235 -95 283 -111 91 -29 107 -43 107 -95 0 -19 -1 -19 -47 1 -133 58 -200 85 -323 129 -74 27 -196 72 -270 101 -135 51 -210 79 -605 223 -115 42 -246 90 -290 107 -363 140 -562 209 -605 209 -37 0 -90 30 -90 51 0 15 5 18 23 14 12 -3 56 -11 97 -19z m2268 -93 c-24 -4 -28 -9 -28 -38 0 -19 -5 -37 -12 -41 -8 -5 -9 -2 -5 10 4 10 7 31 7 47 0 26 3 29 33 28 30 -2 30 -2 5 -6z m101 -73 c19 0 39 7 45 16 11 14 13 14 25 0 12 -14 10 -16 -8 -16 -12 0 -21 -6 -21 -15 0 -8 2 -15 4 -15 2 0 11 -3 19 -6 9 -3 16 3 20 15 7 29 41 27 177 -13 132 -39 253 -82 430 -156 486 -201 567 -230 830 -295 183 -46 182 -45 176 -60 -6 -17 32 -65 76 -96 35 -25 67 -27 167 -10 116 21 227 6 583 -75 251 -57 336 -69 653 -94 239 -18 452 -44 463 -55 8 -8 -29 -96 -38 -90 -10 6 -276 42 -374 50 -217 17 -753 122 -1071 209 -148 41 -184 44 -186 19 -1 -17 -2 -17 -6 0 -5 18 -38 23 -62 8 -7 -5 -16 -29 -18 -55 -5 -41 -3 -46 14 -46 16 0 19 -5 16 -25 -3 -13 -11 -30 -19 -36 -11 -9 -14 -6 -14 19 l0 31 -30 -17 c-43 -25 -59 -9 -100 96 -53 135 -64 144 -234 187 -406 101 -887 264 -1179 399 -42 20 -83 36 -91 36 -8 0 -16 4 -18 9 -1 5 -26 20 -55 35 -50 25 -52 25 -65 7 -25 -35 -81 -61 -131 -61 -73 0 -88 12 -81 63 9 68 10 68 41 52 15 -8 43 -15 62 -15z m-2318 -49 c41 -16 128 -47 194 -69 157 -53 385 -136 456 -167 31 -14 95 -36 142 -50 78 -22 367 -132 542 -205 132 -55 200 -82 295 -115 52 -18 124 -46 160 -63 36 -17 139 -63 230 -103 211 -91 291 -133 340 -178 52 -48 118 -174 132 -253 6 -34 17 -77 24 -94 19 -45 120 -134 200 -176 72 -38 497 -221 644 -278 47 -18 117 -45 155 -60 39 -15 109 -39 157 -55 l88 -27 35 31 c33 29 41 31 109 31 110 0 256 -12 256 -21 0 -4 -17 -11 -37 -14 -72 -12 -173 -54 -236 -99 -36 -25 -73 -46 -83 -46 -70 0 -270 79 -489 193 -271 140 -351 177 -400 184 -26 3 -70 19 -98 35 -106 59 -240 145 -284 183 -49 42 -106 122 -97 136 3 5 0 9 -6 9 -6 0 -9 3 -7 8 5 6 -30 82 -77 169 -19 35 -90 102 -146 138 -63 40 -267 143 -392 198 -187 83 -908 343 -1483 535 -181 61 -367 125 -412 142 l-83 32 0 43 0 44 49 -4 c27 -3 82 -18 122 -34z m-199 -86 c-2 -14 -6 -25 -8 -25 -2 0 -4 11 -4 25 0 14 4 25 9 25 4 0 6 -11 3 -25z m180 -66 c73 -28 273 -98 443 -154 412 -136 1170 -407 1370 -490 115 -47 375 -177 429 -214 60 -42 72 -58 109 -151 36 -89 74 -160 92 -172 5 -5 6 -8 0 -8 -14 0 84 -98 135 -133 25 -17 50 -35 55 -40 16 -13 237 -147 275 -167 20 -10 58 -21 85 -25 50 -7 209 -82 399 -187 50 -28 102 -54 116 -59 14 -4 66 -25 115 -47 50 -22 124 -49 165 -61 108 -32 109 -32 79 -41 -60 -17 -146 9 -464 143 -60 26 -119 48 -130 50 -11 2 -56 21 -100 41 -44 20 -89 41 -100 46 -121 53 -182 83 -195 94 -8 8 -100 60 -205 116 -200 108 -241 138 -282 208 -15 25 -32 42 -43 42 -28 0 -14 -33 38 -91 66 -74 129 -117 298 -205 82 -43 175 -94 206 -115 54 -36 178 -95 343 -164 462 -193 579 -236 648 -238 l62 -1 67 67 67 67 60 0 c33 0 63 -4 66 -10 4 -6 -5 -10 -19 -10 -37 0 -121 -34 -162 -65 -24 -19 -34 -34 -34 -54 0 -35 -35 -81 -62 -81 -11 0 -50 14 -86 31 -87 40 -438 190 -617 263 -262 107 -290 119 -455 201 -241 120 -447 246 -462 283 -4 9 -7 38 -7 64 -1 26 -10 70 -21 98 -11 27 -16 50 -12 50 4 0 2 4 -3 8 -6 4 -15 18 -21 32 -6 14 -34 52 -63 86 -47 55 -61 65 -164 109 -61 26 -130 56 -152 66 -73 33 -219 91 -260 104 -22 7 -134 49 -250 93 -324 122 -791 275 -1250 407 -126 37 -231 71 -233 76 -7 19 -22 8 -22 -18 0 -38 -6 -25 -14 30 l-8 49 34 -7 c18 -4 35 -11 38 -15 3 -4 136 -47 295 -95 293 -87 504 -154 1005 -315 151 -48 286 -92 300 -95 14 -4 88 -39 165 -77 167 -83 255 -118 296 -118 35 0 103 -43 171 -108 43 -42 52 -42 34 0 -10 22 -127 117 -186 150 -25 14 -68 28 -97 31 -37 4 -102 31 -235 96 -101 50 -188 91 -193 91 -4 0 -146 45 -314 99 -608 197 -1031 329 -1214 378 -34 9 -62 23 -68 34 -13 25 -27 24 -32 -3 -3 -17 -5 -14 -6 10 -1 21 4 32 13 32 7 0 16 9 19 20 3 11 7 20 10 20 3 0 65 -23 139 -51z m2503 -237 c28 -11 82 -33 120 -48 73 -28 365 -148 400 -164 95 -45 262 -99 985 -318 13 -4 29 -17 35 -29 6 -11 17 -28 24 -37 11 -14 11 -16 -3 -16 -57 0 33 -103 110 -126 45 -13 50 -13 61 3 7 9 13 32 13 50 0 42 31 51 97 29 27 -9 118 -30 203 -46 85 -16 198 -38 251 -49 52 -11 151 -27 220 -36 68 -9 160 -22 204 -30 95 -16 276 -40 433 -56 122 -13 128 -18 92 -69 -11 -15 -16 -31 -12 -35 4 -4 -4 -5 -18 -1 -72 19 -289 50 -579 81 -350 39 -425 51 -601 96 -63 16 -122 29 -132 29 -10 0 -58 -13 -108 -30 -58 -19 -111 -30 -148 -30 l-57 0 -25 63 c-13 34 -23 65 -22 69 1 4 -22 32 -52 62 -53 52 -57 55 -217 105 -483 151 -672 216 -1042 357 -189 72 -222 88 -255 122 -42 43 -89 60 -121 42 -30 -15 -27 5 4 36 23 23 27 24 57 11 18 -8 56 -23 83 -35z m-2575 18 c0 -5 -9 -10 -20 -10 -11 0 -20 5 -20 10 0 6 9 10 20 10 11 0 20 -4 20 -10z m132 -104 c163 -42 308 -92 453 -156 73 -32 142 -54 205 -65 132 -24 441 -145 370 -145 -5 0 -10 5 -10 11 0 5 -4 8 -8 5 -13 -8 -800 231 -1041 316 -69 24 -126 49 -129 56 -6 18 15 15 160 -22z m188 14 c8 -5 12 -11 9 -14 -7 -8 -49 5 -49 15 0 12 21 11 40 -1z m2255 -39 c41 -41 64 -51 370 -166 136 -51 620 -218 680 -235 17 -5 98 -30 180 -56 83 -26 158 -47 168 -46 9 0 17 -3 17 -8 0 -4 11 -11 25 -14 30 -8 52 -47 80 -146 17 -62 26 -78 54 -97 39 -26 81 -30 81 -8 0 8 7 15 15 15 8 0 15 -7 15 -15 0 -8 9 -15 20 -15 26 0 26 -2 -12 -44 -40 -45 -52 -43 -191 25 -53 26 -137 64 -185 83 -48 18 -141 55 -207 81 -66 26 -144 58 -173 71 -29 13 -54 24 -56 24 -2 0 -42 18 -88 39 -109 51 -246 104 -342 131 -103 29 -182 62 -498 213 -26 12 -47 27 -48 33 0 7 -16 36 -35 64 -20 29 -34 53 -33 54 2 1 26 13 53 28 28 15 54 27 60 27 5 1 27 -17 50 -38z m-2190 20 c17 -5 85 -25 153 -45 268 -79 755 -243 986 -332 77 -30 145 -54 149 -54 12 0 115 -41 277 -110 265 -114 242 -98 288 -188 31 -60 42 -92 42 -126 0 -60 26 -134 58 -169 84 -90 570 -363 792 -445 136 -50 647 -267 800 -340 96 -45 148 -55 175 -32 24 20 18 -6 -9 -37 -24 -27 -24 -27 -77 -14 -217 56 -594 213 -800 334 -25 15 -68 30 -95 33 -34 5 -95 31 -199 87 -82 44 -157 86 -165 92 -24 20 -220 120 -280 143 -30 11 -74 24 -97 27 -63 10 -79 29 -93 115 -7 41 -23 104 -37 140 -13 36 -26 73 -28 84 -9 38 -101 145 -160 185 -62 41 -372 168 -635 259 -144 50 -296 107 -420 157 -131 53 -197 74 -285 90 -57 10 -125 32 -185 60 -52 23 -119 51 -147 61 -29 10 -53 22 -53 26 0 10 9 10 45 -1z m-219 -100 c93 -33 291 -96 439 -141 149 -45 340 -103 425 -130 85 -27 184 -56 219 -64 35 -9 114 -36 175 -61 95 -38 195 -76 426 -163 56 -21 154 -116 168 -163 6 -19 29 -77 51 -129 22 -53 42 -109 45 -125 3 -16 13 -40 23 -53 32 -42 360 -234 648 -379 143 -72 230 -117 460 -239 72 -37 150 -79 175 -91 25 -13 113 -38 197 -57 149 -34 167 -42 331 -133 61 -34 154 -68 215 -78 20 -3 37 -11 37 -17 0 -16 -91 -3 -191 27 -46 14 -163 46 -259 71 -205 53 -380 106 -447 136 -27 11 -145 62 -263 113 -301 130 -460 203 -570 265 -52 29 -114 63 -138 76 -24 13 -55 33 -70 43 -15 10 -57 35 -93 54 l-66 36 -17 87 c-24 118 -59 218 -92 262 -44 57 -160 167 -228 216 -131 93 -356 195 -546 247 -41 11 -131 38 -200 59 -69 21 -181 54 -250 73 -69 19 -233 66 -365 105 -132 39 -249 71 -260 71 -11 0 -48 3 -82 7 -57 6 -63 5 -64 -12 0 -18 -1 -18 -9 1 -14 31 -12 35 18 35 15 0 22 4 17 8 -14 9 -42 102 -32 102 2 0 80 -27 173 -59z m2307 -130 c53 -40 265 -146 482 -241 66 -29 215 -101 330 -159 116 -59 293 -142 395 -186 244 -103 378 -172 385 -199 23 -80 51 -102 142 -111 76 -7 84 -14 58 -49 -22 -29 -103 -16 -237 39 -62 26 -196 77 -298 115 -303 112 -378 144 -629 269 -214 107 -345 184 -388 226 -30 30 -104 76 -175 109 -110 49 -127 56 -148 56 -27 0 -90 31 -84 42 3 4 0 8 -5 8 -6 0 -11 6 -11 13 0 6 -7 25 -15 41 -19 35 -13 43 20 28 38 -17 54 -15 87 13 16 14 32 25 34 25 3 0 28 -18 57 -39z m2142 -207 c61 -13 179 -39 263 -58 294 -67 865 -156 998 -156 40 0 45 -2 39 -17 -4 -10 -8 -24 -8 -30 0 -7 -4 -13 -9 -13 -4 0 -8 -7 -8 -15 0 -12 -8 -14 -37 -10 -21 3 -99 12 -173 20 -318 36 -761 100 -930 135 -52 11 -144 29 -205 40 -145 28 -226 51 -223 62 2 6 21 16 43 24 21 7 50 22 64 33 17 14 34 19 51 15 14 -3 75 -16 135 -30z m-2039 -39 c50 -24 100 -52 110 -62 53 -55 236 -165 451 -272 269 -134 376 -180 643 -276 102 -37 225 -84 275 -105 92 -39 216 -80 241 -80 8 0 29 20 46 45 18 25 43 48 57 52 30 7 106 -10 431 -97 140 -38 323 -85 405 -105 83 -21 151 -39 153 -40 5 -5 -115 -125 -125 -125 -4 0 -20 6 -35 14 -57 30 -238 86 -309 96 -41 6 -153 26 -249 45 -438 87 -689 122 -777 109 -29 -4 -57 -17 -78 -36 l-33 -28 -74 24 c-169 56 -357 129 -628 246 -289 124 -351 154 -382 184 -28 27 -31 35 -43 111 -4 22 -13 51 -20 65 -8 14 -16 37 -19 51 -8 37 -90 157 -139 203 -51 47 -37 44 99 -19z m-2476 15 c0 -11 -7 -20 -15 -20 -8 0 -15 9 -15 20 0 11 7 20 15 20 8 0 15 -9 15 -20z m1434 -19 c7 -6 16 -8 19 -4 4 3 7 1 7 -5 0 -15 -7 -14 -55 8 -34 17 -36 19 -12 15 16 -2 34 -9 41 -14z m1611 -7 c76 -25 150 -54 240 -94 80 -36 362 -153 505 -210 80 -32 185 -79 234 -104 49 -26 109 -52 133 -58 44 -11 45 -10 74 26 17 20 36 36 43 36 8 0 60 -14 117 -30 109 -31 468 -100 787 -149 215 -34 329 -58 338 -72 3 -6 -1 -18 -10 -28 -9 -10 -16 -22 -16 -28 0 -28 -27 -33 -96 -19 -38 8 -127 26 -199 40 -71 14 -215 43 -320 65 -178 37 -596 116 -676 128 -37 5 -50 -5 -84 -62 -16 -26 -83 -12 -95 19 -21 56 -175 144 -495 281 -286 123 -612 284 -575 285 9 0 51 -12 95 -26z m-1512 -27 c4 3 7 1 7 -5 0 -14 -2 -14 -24 -6 -9 3 -16 11 -16 16 0 7 5 6 13 -1 8 -6 17 -8 20 -4z m98 -36 c24 -10 111 -44 192 -76 103 -41 157 -67 178 -89 35 -36 81 -130 98 -201 7 -27 17 -52 22 -56 5 -3 13 -20 18 -37 8 -25 7 -32 -5 -32 -9 0 -14 -10 -14 -27 0 -44 110 -144 183 -166 182 -55 143 -36 575 -273 94 -52 163 -83 190 -87 27 -3 124 -45 245 -106 281 -139 568 -251 690 -267 48 -7 70 10 110 86 48 91 129 107 324 65 200 -43 266 -60 269 -70 2 -6 -8 -18 -22 -28 -25 -18 -26 -18 -72 1 -158 68 -314 44 -462 -71 -60 -47 -68 -51 -117 -50 -85 2 -151 28 -360 143 -33 18 -105 40 -195 61 -151 33 -212 59 -458 190 -63 34 -232 121 -375 195 -261 133 -306 157 -467 255 -85 52 -87 53 -113 121 -15 37 -31 68 -36 68 -5 0 -9 16 -9 35 0 38 -27 99 -66 152 -13 17 -24 36 -24 41 0 5 -26 34 -58 64 -57 55 -122 93 -234 137 -32 13 -58 27 -58 32 0 12 1 12 51 -10z m2698 -516 c39 -8 175 -33 303 -55 128 -22 332 -62 453 -89 121 -27 244 -52 273 -56 46 -6 53 -10 49 -26 -4 -15 0 -19 19 -19 30 0 32 -18 2 -22 -16 -2 -24 -11 -26 -29 -2 -19 -10 -28 -28 -32 -14 -2 -24 0 -24 7 0 6 -16 12 -36 14 -19 1 -44 6 -53 12 -14 7 -376 103 -546 144 -5 1 -41 12 -80 24 -145 44 -370 94 -403 88 -30 -4 -32 -3 -26 17 13 41 24 43 123 22z m47 -340 c76 -14 191 -35 254 -46 335 -57 490 -97 490 -125 0 -44 -123 -28 -387 51 -81 25 -186 50 -233 56 -91 12 -225 51 -256 74 -25 19 -30 19 132 -10z m14 -92 c48 -19 101 -32 149 -36 61 -5 463 -108 480 -123 7 -6 -51 -63 -69 -69 -9 -3 -59 15 -111 39 -165 78 -333 125 -596 166 -164 26 -178 29 -167 40 15 14 55 18 149 16 73 -2 104 -9 165 -33z m-25 -99 c167 -29 348 -78 460 -125 74 -30 89 -44 61 -55 -16 -6 -476 114 -581 152 -38 14 -80 28 -92 31 -24 6 -32 23 -11 23 7 0 80 -12 163 -26z m5 -98 c74 -23 204 -61 287 -82 93 -24 153 -44 153 -51 0 -23 -45 -25 -96 -4 -67 26 -448 111 -499 111 -59 0 -108 -17 -135 -45 -30 -32 -39 -32 -37 3 3 40 109 107 177 111 9 1 76 -19 150 -43z m227 -260 c13 -13 -21 -27 -52 -21 -16 3 -47 8 -67 11 -21 4 -38 11 -38 17 0 11 146 5 157 -7z m-247 -35 c-13 -9 -44 -33 -68 -54 -50 -43 -101 -71 -110 -62 -11 11 81 87 139 117 56 28 82 28 39 -1z m190 -71 c0 -5 -10 -10 -22 -10 -19 0 -20 2 -8 10 19 13 30 13 30 0z"></path><path id="p1Boc3i8QI" d="M2710 1927 c0 -7 11 -24 25 -37 14 -13 25 -29 25 -36 0 -6 18 -48 41 -93 29 -58 46 -81 59 -81 13 0 18 7 17 20 -1 11 -6 20 -11 20 -5 0 -7 3 -3 6 8 9 -27 78 -69 135 -38 53 -84 88 -84 66z"></path><path id="p16MrhTbR2" d="M2992 4294 l-32 -26 22 -18 c22 -17 22 -19 5 -37 -9 -11 -17 -29 -17 -40 0 -33 35 -18 77 33 57 70 84 64 340 -82 236 -136 240 -137 403 -96 47 12 102 24 123 27 23 4 37 11 37 20 0 8 -4 15 -10 15 -5 0 -10 10 -10 21 0 21 -3 22 -68 16 -37 -4 -104 -16 -147 -28 -129 -35 -134 -35 -220 5 -43 20 -106 54 -140 75 -105 67 -262 141 -297 141 -20 0 -46 -10 -66 -26z m808 -224 c0 -5 -12 -10 -27 -9 -25 0 -26 1 -8 9 27 12 35 12 35 0z"></path><path id="p15i43FVop" d="M6550 4142 c0 -16 7 -49 15 -72 18 -52 18 -50 0 -50 -18 0 -17 -4 21 -147 19 -72 32 -103 42 -103 12 0 14 10 8 55 -3 30 -2 55 3 55 22 0 15 46 -23 160 -40 122 -66 162 -66 102z"></path><path id="pfKyZO1jX" d="M6663 3687 c4 -29 10 -67 13 -85 5 -25 3 -32 -9 -32 -20 0 -27 -32 -12 -53 16 -23 23 -21 28 6 3 16 5 13 6 -10 1 -23 -3 -33 -14 -33 -16 0 -17 -7 -16 -90 2 -76 10 -110 27 -110 9 0 14 11 14 35 0 28 4 35 20 35 25 0 25 22 5 175 -22 167 -34 215 -52 215 -13 0 -15 -9 -10 -53z"></path><path id="pssZkYo1U" d="M2915 3420 c-17 -19 -17 -20 1 -20 25 0 44 -18 44 -42 0 -10 5 -18 10 -18 6 0 10 4 10 9 0 42 189 -13 490 -144 151 -65 340 -123 575 -176 319 -71 409 -100 571 -179 103 -51 151 -70 180 -70 43 0 66 14 57 36 -3 8 2 25 11 39 15 22 23 25 78 25 39 0 111 -13 192 -35 285 -75 631 -134 1116 -190 390 -45 372 -42 366 -63 -3 -9 -15 -57 -27 -105 l-22 -88 -23 22 c-20 19 -43 24 -181 36 -452 38 -922 125 -1390 255 -93 26 -117 29 -138 20 -22 -10 -25 -18 -25 -66 0 -30 -5 -58 -10 -61 -6 -3 -30 -3 -55 1 -42 6 -45 8 -51 43 -10 60 -36 103 -85 136 -40 27 -61 33 -150 44 -133 16 -297 50 -485 102 -182 50 -250 74 -519 182 -115 47 -253 102 -305 122 -52 20 -109 47 -127 61 -36 28 -53 30 -53 9 0 -8 5 -15 11 -15 6 0 30 -16 53 -35 41 -33 88 -55 321 -145 61 -24 184 -73 275 -111 255 -105 580 -194 836 -231 l152 -21 4 -42 c12 -99 72 -157 178 -169 33 -4 65 -4 70 -1 6 3 10 33 10 65 0 55 2 60 24 66 14 3 84 -11 173 -35 439 -119 972 -214 1396 -247 64 -5 87 -10 87 -20 0 -8 7 -14 14 -14 12 0 12 -10 -5 -57 -22 -65 -25 -117 -6 -111 14 5 85 203 91 254 2 25 -1 34 -12 34 -11 0 -13 7 -9 30 12 59 20 160 12 160 -4 0 -14 -8 -21 -17 -12 -17 -14 -16 -41 9 -25 24 -42 28 -168 43 -697 81 -975 127 -1347 221 -153 38 -178 41 -178 19 0 -8 -9 -15 -20 -15 -11 0 -20 7 -20 16 0 11 -8 14 -27 12 -21 -2 -30 -11 -36 -33 -25 -84 -48 -84 -213 -2 -173 86 -231 104 -639 196 -225 51 -349 91 -551 176 -201 85 -266 110 -340 128 -112 28 -110 28 -129 7z"></path><path id="poTNSxxwd" d="M6710 3045 c0 -37 24 -50 32 -17 6 27 -2 52 -18 52 -9 0 -14 -11 -14 -35z"></path><path id="p8in7j204" d="M6666 3043 c-5 -27 -10 -130 -7 -165 0 -10 8 -18 16 -18 10 0 15 -9 14 -27 -2 -24 -2 -25 -6 -5 -5 26 -12 28 -28 5 -15 -21 -8 -53 12 -53 12 0 14 -7 9 -32 -3 -18 -9 -56 -13 -85 -5 -44 -3 -53 10 -53 18 0 30 48 52 215 20 151 20 165 -5 165 -17 0 -20 7 -20 40 0 47 -25 56 -34 13z"></path><path id="p5qWBKbba" d="M4715 3040 c27 -30 81 -37 107 -14 20 19 20 19 -23 26 -24 3 -57 7 -73 7 -28 1 -29 1 -11 -19z"></path><path id="psaelnKMf" d="M700 1746 c0 -19 6 -37 13 -39 6 -3 2 -6 -10 -6 -13 -1 -23 -4 -23 -7 0 -12 55 -94 63 -94 11 0 8 68 -3 73 -6 3 -5 4 2 3 7 -1 14 -17 16 -34 2 -18 8 -32 13 -32 11 0 39 -25 39 -34 0 -3 -11 -6 -25 -6 -19 0 -23 -4 -18 -17 8 -22 93 -145 107 -155 6 -4 7 -8 3 -8 -5 0 14 -26 42 -59 28 -32 51 -63 51 -68 0 -5 18 -27 40 -48 l40 -39 0 35 c0 41 -33 79 -68 79 -18 0 -22 6 -22 34 0 23 5 36 15 38 12 2 9 11 -14 38 -26 30 -30 32 -31 15 -1 -19 -1 -19 -19 3 -11 12 -29 22 -40 22 -12 0 -21 6 -21 15 0 9 9 15 25 15 28 0 26 15 -8 63 -10 16 -17 30 -15 32 2 3 58 -16 124 -41 65 -25 175 -66 242 -90 148 -53 262 -107 368 -176 44 -28 81 -54 84 -57 3 -4 25 -22 50 -41 79 -61 199 -181 328 -328 141 -160 172 -186 325 -267 106 -56 141 -87 70 -60 -423 154 -735 325 -923 506 -47 45 -110 97 -140 117 -30 19 -57 38 -60 41 -7 9 -140 85 -173 99 -15 7 -41 12 -57 12 -28 0 -30 -2 -30 -40 0 -38 1 -40 31 -40 27 0 30 2 19 15 -28 34 6 26 106 -25 120 -60 200 -116 294 -205 188 -177 435 -326 761 -458 133 -54 482 -182 802 -293 151 -53 195 -74 152 -74 -8 0 -15 -7 -15 -15 0 -11 11 -15 38 -15 20 0 74 -3 120 -7 68 -5 82 -4 82 9 0 10 -51 33 -159 71 -88 31 -171 59 -185 63 -14 3 -26 10 -26 15 0 12 13 11 47 -2 15 -6 123 -35 238 -64 147 -38 203 -56 188 -61 -43 -12 -27 -34 25 -34 116 0 242 13 242 25 0 8 -60 27 -157 50 -334 78 -558 140 -823 227 -321 106 -359 120 -505 200 -108 59 -206 140 -245 201 -53 85 -305 328 -450 434 -157 114 -260 165 -580 283 -124 46 -227 85 -229 87 -30 23 116 -9 334 -72 85 -25 342 -146 450 -213 28 -17 73 -44 100 -61 57 -34 127 -100 234 -220 115 -128 225 -209 481 -354 176 -99 260 -139 445 -212 227 -90 459 -167 753 -251 190 -54 239 -71 227 -80 -8 -6 -15 -15 -15 -19 0 -8 161 2 186 12 37 14 7 31 -98 57 -173 43 -605 168 -778 226 -251 85 -514 195 -680 284 -303 164 -353 200 -527 383 -135 141 -182 180 -354 289 -25 16 -124 69 -220 116 -176 88 -266 120 -513 179 -89 21 -101 27 -120 56 -27 42 -36 41 -36 -1z"></path><path id="p7RsrzyWa" d="M1190 1100 c0 -41 42 -90 77 -90 16 0 23 -6 23 -20 0 -12 9 -22 23 -25 13 -4 42 -31 66 -61 34 -44 48 -54 72 -54 24 0 29 -4 29 -25 0 -18 5 -25 20 -25 11 0 20 -7 20 -15 0 -8 5 -15 11 -15 11 0 39 -24 39 -34 0 -3 -8 -6 -17 -6 -13 -1 -9 -9 17 -31 33 -28 35 -29 38 -9 3 20 22 29 22 10 0 -5 9 -10 20 -10 25 0 27 -30 3 -30 -14 -1 -12 -6 10 -25 36 -32 47 -31 48 3 1 16 3 20 6 10 2 -10 11 -18 19 -18 8 0 14 -4 14 -10 0 -5 7 -10 15 -10 8 0 15 -4 15 -10 0 -5 -7 -10 -15 -10 -28 0 -15 -17 33 -44 236 -137 232 -135 232 -101 0 18 -7 26 -25 31 -27 7 -34 24 -10 24 32 0 12 18 -72 65 -82 45 -322 199 -333 214 -3 4 -27 23 -55 43 -54 39 -100 87 -91 95 2 3 11 0 18 -7 7 -6 49 -32 93 -58 97 -57 159 -99 245 -168 108 -85 313 -201 498 -279 61 -27 112 -53 112 -58 0 -5 -7 -7 -15 -3 -10 3 -15 -1 -15 -14 0 -18 -2 -18 -35 -4 -19 7 -44 14 -55 14 -11 0 -20 4 -20 9 0 4 -21 17 -47 27 -31 11 -42 20 -30 22 26 5 21 18 -15 35 -31 15 -33 15 -36 -3 -3 -20 -32 -29 -32 -10 0 6 -16 10 -35 10 -19 0 -35 -4 -35 -9 0 -19 291 -142 470 -199 211 -67 432 -113 657 -137 190 -20 223 -20 223 3 0 17 -12 20 -102 25 -136 8 -292 31 -462 68 -166 36 -198 47 -143 48 49 1 47 14 -5 39 -24 11 -101 48 -173 82 -71 34 -191 89 -265 122 -183 81 -387 198 -460 263 -55 49 -232 162 -350 222 -92 47 -140 79 -182 121 l-58 56 0 -34z"></path></g></g><g id="l61s7kFBH35DGd3RMlKHbNI" fill="rgb(69,48,82)" style="transform: none;"><g><path id="p1iMeErN3" d="M3271 6270 c-1042 -82 -1975 -634 -2511 -1485 -454 -720 -582 -1568 -363 -2400 46 -175 159 -462 238 -603 14 -25 25 -48 25 -52 0 -15 161 -263 232 -359 209 -279 478 -537 763 -730 781 -529 1762 -700 2679 -467 737 188 1370 609 1813 1206 76 103 149 214 193 294 15 28 43 80 63 116 95 173 210 485 261 705 57 251 70 378 70 680 0 295 -13 429 -66 660 -50 224 -171 554 -265 725 -20 36 -48 88 -63 116 -152 279 -439 618 -720 850 -427 352 -947 595 -1485 694 -261 48 -619 69 -864 50z m144 -95 c49 -31 91 -33 98 -6 3 14 -1 21 -17 25 -11 3 62 3 164 1 297 -7 655 -72 905 -164 70 -26 341 -138 395 -163 111 -52 454 -264 501 -310 8 -8 52 -44 99 -81 126 -99 480 -455 480 -482 0 -7 44 -65 100 -132 5 -7 10 -15 10 -18 0 -3 15 -26 34 -52 38 -53 176 -291 176 -303 0 -4 20 -48 45 -98 25 -50 45 -94 45 -99 0 -5 16 -47 35 -93 78 -188 155 -511 174 -735 14 -153 14 -426 0 -580 -10 -122 -55 -366 -85 -465 -51 -171 -87 -276 -104 -311 -11 -21 -20 -43 -20 -49 0 -6 -17 -46 -39 -89 -21 -42 -42 -88 -46 -102 -4 -13 -15 -35 -25 -49 -9 -14 -32 -54 -51 -90 -19 -36 -42 -74 -51 -84 -10 -11 -18 -23 -18 -28 0 -10 -69 -116 -92 -142 -10 -11 -38 -50 -63 -88 -26 -37 -50 -68 -54 -68 -4 0 -22 -20 -39 -44 -88 -122 -389 -401 -568 -526 -50 -35 -192 -129 -224 -148 -65 -39 -354 -180 -435 -212 -44 -18 -84 -35 -90 -40 -5 -4 -68 -24 -140 -44 -71 -21 -146 -43 -166 -51 -20 -7 -56 -16 -80 -20 -24 -4 -75 -13 -114 -22 -378 -84 -976 -79 -1345 11 -447 109 -773 249 -1115 479 -132 88 -257 191 -295 242 -19 25 -39 45 -45 45 -7 0 -30 15 -53 33 -47 37 -216 216 -211 222 2 2 36 -9 76 -24 49 -20 70 -24 66 -14 -7 17 -116 78 -177 99 -25 9 -46 19 -46 24 0 4 -23 36 -51 71 -46 57 -119 164 -119 173 0 2 53 -16 117 -39 172 -62 162 -59 139 -45 -13 9 -15 14 -6 20 7 5 -41 28 -121 59 -74 29 -145 57 -159 63 -42 19 0 21 74 3 37 -8 69 -15 70 -15 2 0 6 8 8 18 4 15 -8 22 -76 40 -45 12 -93 24 -107 27 -18 5 -35 23 -58 62 -17 31 -29 58 -27 61 3 2 56 -5 118 -17 135 -25 134 -25 112 -4 -15 16 -15 17 2 23 12 5 -1 9 -36 14 -30 4 -95 16 -143 28 l-89 20 -39 81 c-21 45 -39 87 -39 94 0 17 22 16 144 -2 125 -19 126 -19 126 4 0 15 -16 23 -87 40 -49 12 -117 25 -152 29 -54 6 -65 10 -72 30 l-9 23 88 -6 c48 -3 113 -8 145 -11 l58 -5 -16 30 c-10 20 -23 31 -38 32 -12 0 -76 6 -141 12 l-119 12 -15 43 c-8 24 -12 46 -9 48 3 3 76 -13 162 -36 87 -22 159 -39 162 -36 3 2 -4 13 -15 24 -18 18 -107 49 -274 96 -53 15 -58 19 -68 54 -20 73 -18 74 58 45 55 -21 300 -102 310 -103 2 0 2 8 0 17 -2 13 -53 36 -191 85 -103 37 -192 70 -198 73 -17 11 -10 37 9 31 9 -2 73 -18 142 -35 69 -16 159 -41 199 -55 41 -14 77 -23 79 -21 2 2 -8 7 -22 11 -17 4 -25 12 -22 19 6 17 -98 56 -278 105 -70 19 -127 40 -125 45 4 12 -15 16 204 -45 98 -27 181 -48 183 -45 3 3 0 5 -6 5 -19 0 -14 18 5 22 10 2 -25 15 -77 31 -205 59 -320 94 -323 98 -3 2 -7 17 -11 33 -6 25 -5 28 11 21 10 -4 104 -32 208 -61 105 -30 198 -57 209 -60 13 -4 16 -2 11 6 -4 7 -3 15 3 19 5 3 -93 37 -218 76 -244 74 -240 72 -240 138 0 31 7 33 58 11 49 -21 353 -124 367 -124 5 0 3 4 -5 10 -8 5 -11 12 -7 16 4 4 -84 41 -195 81 -112 40 -209 81 -216 90 -12 16 -17 65 -7 74 5 5 261 -57 350 -85 61 -19 58 -19 52 -2 -4 11 -1 13 11 9 9 -3 14 -3 11 0 -10 12 -274 100 -349 116 l-75 16 -3 36 -3 37 80 -23 c45 -13 85 -27 91 -30 5 -3 56 -19 112 -35 57 -16 110 -31 119 -35 10 -4 19 0 22 9 7 17 -51 41 -278 116 -103 34 -141 51 -143 64 -3 16 2 17 55 11 32 -4 118 -23 190 -41 73 -19 142 -34 153 -34 35 0 21 27 -23 43 -46 16 -282 82 -334 92 -32 6 -33 8 -33 56 0 49 0 49 28 43 38 -9 326 -107 391 -133 l54 -22 -15 23 c-17 25 -154 86 -333 148 l-110 38 -3 41 c-2 23 1 41 5 41 11 0 351 -103 427 -130 70 -24 76 -25 50 -5 -15 11 -16 15 -4 15 22 2 -12 15 -250 96 l-215 74 3 33 c4 56 7 58 54 37 24 -10 97 -35 163 -55 99 -29 180 -57 302 -102 7 -3 10 3 6 15 -4 15 -43 34 -166 80 -89 33 -189 68 -222 77 -33 9 -74 23 -91 30 l-32 13 10 49 c6 26 11 49 13 51 1 1 26 -12 56 -30 30 -18 72 -41 94 -50 83 -36 368 -139 372 -134 2 2 -5 7 -16 11 -12 3 -21 12 -21 18 0 7 -85 45 -188 86 -235 93 -282 117 -282 145 0 23 55 214 64 223 3 4 14 -1 23 -9 10 -9 90 -39 178 -67 88 -29 191 -64 229 -78 46 -17 71 -22 74 -15 2 6 11 8 20 5 9 -3 15 -4 12 -1 -8 10 -327 133 -432 167 l-97 32 19 49 c31 78 72 175 76 179 2 3 14 -5 27 -16 69 -64 477 -220 477 -182 0 15 -55 45 -115 63 -116 34 -375 145 -375 161 0 11 53 115 59 115 4 0 63 -24 132 -54 283 -122 317 -134 312 -117 -4 15 -145 86 -333 167 -47 20 -87 38 -89 40 -5 4 30 84 36 84 3 0 24 -11 47 -25 24 -14 79 -36 122 -49 44 -12 123 -42 176 -64 109 -47 108 -47 108 -29 0 15 -241 126 -340 157 -96 30 -99 32 -76 75 11 19 23 35 27 35 4 0 29 -11 56 -24 26 -13 81 -34 120 -45 40 -12 116 -42 169 -67 54 -25 103 -43 111 -40 8 3 12 2 9 -3 -3 -4 6 -13 20 -20 35 -16 44 -13 14 4 -15 9 -19 14 -10 15 30 1 -296 151 -378 174 -91 26 -101 31 -86 46 19 19 347 -61 434 -105 29 -15 55 -24 58 -20 3 3 -4 8 -16 12 -25 6 -30 22 -7 24 8 1 20 3 25 4 6 1 13 3 18 4 22 5 -224 104 -360 146 -49 14 -88 30 -88 34 0 4 9 16 20 26 15 13 23 15 33 7 8 -7 74 -23 148 -37 113 -20 248 -57 334 -90 l20 -8 -20 17 c-20 17 -20 17 5 12 14 -4 5 3 -20 15 -75 35 -269 96 -365 115 -49 9 -92 18 -93 20 -2 1 9 19 25 39 27 35 30 36 78 30 104 -13 257 -46 334 -74 44 -15 77 -23 74 -18 -4 6 0 8 10 4 10 -3 17 -4 17 -1 0 7 -133 68 -195 89 -27 9 -93 27 -146 39 l-97 21 22 28 22 27 180 -45 c99 -24 199 -51 223 -60 23 -8 39 -10 36 -6 -3 5 1 11 7 14 21 7 -146 71 -282 108 l-65 17 45 1 c25 0 65 -8 90 -20 45 -20 248 -64 257 -56 12 13 -28 49 -76 69 -30 12 -49 24 -43 26 6 2 46 -12 89 -31 99 -44 135 -53 127 -32 -4 9 0 15 7 16 8 0 -11 9 -42 19 -30 10 -82 31 -115 47 -32 17 -89 40 -126 53 -37 13 -79 33 -95 46 -26 21 -27 24 -11 40 12 13 21 14 30 7 18 -15 272 -126 335 -147 47 -16 55 -16 68 -3 13 13 11 16 -13 21 -72 18 -367 152 -367 167 0 7 12 21 27 32 l28 21 27 -26 c21 -18 66 -35 168 -63 77 -20 165 -47 195 -60 30 -12 76 -28 102 -35 43 -11 53 -11 96 8 62 27 380 56 454 42 101 -20 360 -139 506 -234 82 -53 180 -101 189 -92 11 11 -29 45 -66 57 -37 12 -68 30 -181 104 -163 107 -439 225 -543 233 -96 7 -341 -16 -409 -39 -75 -25 -79 -25 -189 15 -52 19 -147 49 -211 67 -65 17 -118 35 -118 39 0 12 92 80 101 74 5 -2 56 -18 113 -34 124 -35 216 -44 306 -32 l65 9 -54 2 -53 1 15 24 16 24 -117 -1 c-90 0 -130 4 -176 19 -33 11 -61 24 -62 29 -3 10 118 100 133 99 4 0 24 -3 43 -7 110 -21 353 -57 358 -52 3 3 -2 5 -10 5 -22 0 -31 28 -10 32 18 4 -251 58 -288 58 -13 0 -20 5 -17 13 3 9 48 12 183 11 168 -1 180 0 181 17 2 26 -2 27 -116 40 -56 7 -101 15 -101 18 0 4 37 25 83 48 l83 41 94 -8 c148 -13 278 -19 246 -11 -42 9 -44 29 -4 33 18 2 -23 10 -90 18 -142 16 -142 19 -9 70 l80 30 140 -20 c76 -12 142 -19 145 -16 3 3 0 6 -6 6 -6 0 -9 9 -7 19 3 17 -6 21 -72 32 -89 14 -83 21 51 55 80 20 92 21 107 8 13 -12 192 -63 221 -64 4 0 5 7 2 15 -4 9 0 15 7 16 8 0 -29 13 -81 28 l-95 28 35 11 c19 6 65 16 103 23 63 10 71 9 130 -14 91 -36 115 -40 133 -23 13 13 8 17 -41 32 -30 10 -52 20 -49 23 6 7 105 17 174 19 32 1 57 -6 85 -23z m-2114 -892 c8 -9 32 -30 54 -46 22 -17 31 -27 20 -23 -11 4 -48 17 -83 28 -60 20 -62 22 -46 39 21 23 37 24 55 2z m-106 -121 c-7 -8 -45 10 -40 19 4 5 14 3 25 -3 11 -7 17 -14 15 -16z"></path><path id="pIVdfAbBa" d="M2203 5753 c9 -2 25 -2 35 0 9 3 1 5 -18 5 -19 0 -27 -2 -17 -5z"></path><path id="pQj9k11xJ" d="M2200 5243 c-14 -2 -69 -13 -122 -23 -53 -11 -129 -20 -167 -20 -78 0 -85 -7 -46 -45 21 -22 33 -25 102 -26 l78 0 -65 -25 c-36 -14 -73 -28 -82 -31 -16 -5 -16 -7 3 -34 28 -39 58 -45 107 -20 l41 21 25 -30 c22 -27 31 -30 84 -30 82 0 204 -41 303 -102 121 -74 189 -111 189 -101 -1 14 -24 39 -50 53 -14 7 -78 44 -143 83 -128 76 -262 127 -337 127 l-45 1 30 16 c47 25 222 22 305 -7 103 -35 193 -87 261 -151 69 -64 99 -86 99 -70 0 18 -161 156 -237 203 -103 64 -205 98 -323 106 l-95 6 70 17 c99 25 221 24 285 -1 130 -51 450 -215 526 -270 47 -33 90 -60 96 -60 45 0 -207 170 -373 252 -198 98 -312 148 -353 158 -41 10 -119 11 -166 3z"></path><path id="pkTHX3Lvm" d="M1775 5040 c-10 -16 2 -27 83 -81 194 -127 403 -205 698 -260 187 -35 201 -35 174 -1 -16 19 -42 27 -162 48 -259 46 -411 90 -564 164 -56 27 -108 55 -116 62 -37 35 -107 77 -113 68z"></path><path id="pp82vCdOJ" d="M1530 4902 c0 -9 221 -200 348 -299 125 -98 256 -149 447 -172 108 -13 365 -15 365 -2 0 5 -8 19 -18 31 -18 22 -25 23 -208 25 -355 5 -478 46 -692 233 -168 147 -242 203 -242 184z"></path><path id="pr18680pX" d="M1920 4771 c0 -5 27 -33 59 -63 152 -136 317 -191 586 -192 113 0 144 3 234 28 70 19 119 27 147 23 38 -4 42 -2 35 12 -33 61 -101 68 -253 28 -130 -36 -186 -40 -323 -28 -208 20 -333 66 -430 162 -41 39 -55 47 -55 30z"></path><path id="pwFXKur6P" d="M1706 4652 c-2 -4 7 -16 22 -27 15 -10 54 -50 88 -89 72 -84 180 -176 249 -213 74 -39 237 -97 345 -123 74 -18 101 -30 122 -52 14 -15 36 -28 48 -28 24 0 80 -30 80 -43 0 -4 -9 -3 -21 4 -18 9 -20 8 -16 -8 3 -10 11 -37 17 -60 6 -23 26 -65 45 -93 19 -28 30 -48 25 -45 -21 13 -8 -17 20 -47 17 -17 30 -36 30 -42 0 -36 26 -91 56 -121 43 -43 99 -49 130 -12 42 49 45 63 19 91 -24 25 -55 35 -55 17 0 -15 -51 -71 -65 -71 -7 0 -16 15 -19 33 -3 18 -15 49 -26 70 l-20 37 27 -7 c16 -4 46 -8 67 -8 36 0 41 3 62 44 13 24 21 47 18 52 -3 5 4 22 15 38 l21 29 -37 32 c-34 31 -37 31 -50 14 -10 -14 -16 -15 -25 -6 -7 7 -28 12 -48 12 -43 0 -60 15 -60 52 0 18 -10 38 -26 53 -26 25 -151 73 -241 95 -54 12 -63 30 -15 30 15 1 61 14 102 30 41 17 80 30 87 30 6 0 15 -12 21 -27 14 -39 69 -93 117 -114 22 -10 68 -21 102 -24 l61 -7 44 40 43 41 -29 30 c-17 17 -34 31 -40 31 -5 0 -24 -16 -42 -35 -27 -30 -38 -35 -75 -35 -78 0 -112 16 -133 61 -23 52 -87 99 -133 99 -19 0 -53 -9 -77 -19 -76 -35 -132 -44 -244 -39 -89 4 -120 10 -188 37 -102 39 -183 97 -263 186 -99 110 -122 128 -135 107z m968 -522 c14 -5 26 -15 26 -22 0 -16 87 -110 115 -125 21 -12 19 -20 -5 -23 -36 -5 -47 3 -75 57 -16 31 -44 72 -63 90 -36 36 -36 38 2 23z m139 -229 c34 -13 35 -31 3 -31 -58 0 -116 52 -116 105 0 16 8 12 43 -22 23 -23 54 -46 70 -52z"></path><path id="poLp3t1wF" d="M580 4251 c0 -23 60 -58 108 -64 59 -7 158 -40 301 -101 86 -36 107 -42 123 -33 17 11 17 12 -4 18 -13 3 -77 31 -144 62 -165 77 -207 92 -298 111 -92 19 -86 18 -86 7z"></path><path id="pk0UwsGpS" d="M3820 4116 c-47 -8 -116 -24 -153 -36 -38 -12 -76 -19 -84 -15 -25 9 9 -37 38 -53 28 -15 46 -13 154 17 160 45 402 43 588 -3 177 -45 412 -143 586 -245 29 -17 57 -28 63 -25 6 4 8 2 5 -3 -6 -9 48 -43 69 -43 15 0 -32 42 -66 59 -19 9 -94 49 -165 89 -214 118 -425 201 -606 241 -124 26 -319 34 -429 17z"></path><path id="pu5gpYeN2" d="M496 3967 c8 -22 43 -43 84 -52 19 -4 64 -21 100 -37 51 -24 338 -118 358 -118 2 0 -2 7 -9 16 -12 15 -11 16 9 10 12 -4 22 -5 22 -3 0 3 -78 31 -172 62 -95 32 -208 73 -251 92 -94 42 -150 54 -141 30z"></path><path id="p18T680yZF" d="M3480 3922 c0 -5 10 -18 23 -29 20 -19 39 -21 234 -27 240 -7 395 -25 521 -63 140 -41 131 -40 103 -10 -27 30 -170 78 -301 102 -165 29 -580 48 -580 27z"></path><path id="pPSXeP30S" d="M3580 3812 c0 -13 30 -37 70 -57 19 -10 86 -56 148 -102 208 -156 301 -202 512 -254 79 -19 123 -23 263 -23 137 -1 164 -3 150 -13 -24 -18 -255 -17 -368 2 -266 43 -515 155 -780 352 -64 47 -118 84 -120 82 -7 -7 20 -34 75 -75 279 -207 490 -319 720 -384 88 -24 236 -49 300 -51 l45 -1 -45 -14 c-52 -16 -218 -22 -305 -10 -189 25 -349 84 -503 187 -76 52 -118 66 -67 23 146 -121 382 -230 575 -265 96 -17 317 -16 395 3 53 13 60 17 63 41 3 27 22 39 22 14 0 -7 14 -30 32 -51 31 -38 31 -39 17 -79 -18 -52 -35 -57 -52 -15 -14 32 -63 85 -71 77 -3 -2 0 -22 5 -44 5 -22 11 -52 14 -67 6 -34 61 -68 108 -68 44 0 67 28 67 81 0 35 29 77 43 62 11 -10 8 6 -4 26 -18 28 -3 90 26 103 20 9 37 6 87 -12 35 -12 69 -27 76 -32 20 -17 13 6 -8 25 -13 11 -20 13 -20 5 0 -7 -7 -2 -16 10 -8 12 -22 22 -30 22 -8 0 -14 4 -14 8 0 5 -22 15 -50 22 -27 7 -50 17 -50 21 0 16 108 43 169 43 l64 0 -32 28 c-17 15 -39 28 -49 28 -10 0 -22 12 -29 30 -16 43 -50 48 -126 16 -223 -94 -493 -99 -750 -15 -115 38 -200 83 -312 166 -122 91 -227 163 -237 163 -4 0 -8 -4 -8 -8z m1240 -515 c0 -8 -9 -22 -20 -32 -16 -15 -22 -15 -35 -5 -21 18 -19 25 13 37 37 15 42 15 42 0z"></path><path id="pRltobRSj" d="M2953 3590 c-36 -33 -103 -54 -136 -44 -12 4 -37 17 -56 30 -19 13 -37 22 -39 20 -8 -9 24 -45 60 -69 88 -57 168 -56 243 3 l37 29 -30 31 c-17 16 -34 30 -39 30 -4 0 -22 -14 -40 -30z"></path><path id="pKoYPfURv" d="M2650 3580 c0 -6 4 -18 9 -28 5 -9 19 -38 31 -64 28 -63 92 -133 152 -167 l49 -28 -26 -32 c-39 -45 -58 -40 -89 23 -25 51 -90 115 -103 102 -4 -3 4 -17 17 -31 19 -21 21 -25 7 -25 -9 0 -17 -4 -17 -8 0 -10 35 -48 48 -53 12 -5 25 -79 14 -79 -5 0 -17 9 -27 20 -28 31 -46 26 -32 -10 8 -21 8 -44 0 -82 -8 -41 -8 -59 2 -78 35 -67 137 -130 210 -130 71 0 165 59 152 94 -3 8 -18 22 -32 32 -25 16 -27 16 -53 -8 -58 -55 -116 -69 -182 -47 -32 11 -32 13 -26 57 3 25 6 54 6 65 0 19 2 19 28 -7 17 -15 45 -29 68 -33 21 -3 47 -10 56 -15 13 -6 20 -3 28 12 6 11 20 20 30 20 28 0 25 14 -11 44 -37 31 -53 32 -79 6 -29 -29 -70 -12 -70 30 0 35 -2 34 38 14 48 -23 82 -3 107 63 11 29 26 53 33 53 8 0 32 -16 55 -35 22 -19 44 -35 49 -35 21 0 3 23 -48 60 -62 47 -75 67 -51 85 16 11 15 14 -4 39 -29 37 -61 34 -94 -10 -24 -31 -31 -35 -59 -30 -42 8 -68 41 -101 125 -15 39 -36 78 -48 86 -25 17 -37 19 -37 5z"></path><path id="p4gaf53Xl" d="M2531 3038 c2 -29 59 -106 104 -140 44 -34 181 -88 221 -88 32 0 -26 49 -70 61 -23 6 -67 20 -100 32 -53 19 -61 25 -78 66 -25 57 -80 106 -77 69z"></path><path id="pmvoC17G" d="M4809 2940 c-9 -5 -20 -25 -23 -44 -4 -19 -13 -39 -21 -46 -22 -18 -80 -4 -155 38 -58 32 -63 33 -50 13 18 -27 170 -107 220 -116 44 -8 67 9 74 54 6 43 19 51 84 51 56 0 63 7 32 35 -22 20 -136 31 -161 15z"></path><path id="p0IxIQVZo" d="M2540 2890 c0 -5 14 -19 30 -32 25 -18 30 -29 30 -64 0 -53 25 -85 93 -118 28 -14 66 -34 82 -46 43 -28 60 -25 86 17 l22 36 -27 24 c-36 31 -52 29 -71 -7 -9 -16 -18 -30 -21 -30 -3 0 -25 12 -50 26 -41 24 -44 29 -44 68 0 35 -6 47 -37 78 -51 48 -93 70 -93 48z"></path><path id="p1H2yMHpNq" d="M2494 2793 c8 -15 37 -55 65 -88 54 -63 63 -82 32 -65 -31 16 -43 13 -29 -10 7 -11 35 -29 63 -41 103 -44 210 -100 223 -116 6 -9 12 -27 12 -39 0 -20 -4 -22 -35 -17 -28 5 -41 1 -60 -17 -19 -18 -31 -21 -59 -16 -28 5 -36 12 -41 37 -10 46 -72 109 -134 136 -29 13 -56 22 -58 19 -10 -10 48 -57 77 -63 33 -6 44 -20 54 -72 6 -31 5 -33 -19 -27 -48 12 -20 -26 41 -57 23 -12 35 -29 46 -62 9 -25 14 -45 13 -45 -1 0 -43 18 -95 40 -51 23 -94 39 -97 37 -13 -14 49 -53 161 -103 142 -63 231 -118 272 -167 41 -48 114 -205 114 -244 0 -44 24 -101 58 -137 40 -41 135 -104 216 -142 255 -117 761 -321 901 -362 85 -26 110 -24 110 8 0 22 4 23 90 27 50 2 98 5 108 7 9 2 17 0 17 -5 0 -5 24 -8 53 -7 45 1 47 2 12 5 -22 2 -46 6 -53 8 -7 2 -16 5 -20 6 -4 0 -15 5 -24 10 -13 7 -18 6 -18 -3 0 -10 -3 -9 -9 1 -7 11 -13 12 -23 5 -7 -6 -30 -10 -51 -10 -20 1 -37 -2 -37 -6 0 -11 -22 -10 -39 1 -12 8 -12 11 0 23 8 8 21 17 29 21 12 4 12 6 -2 6 -9 1 -20 -4 -23 -10 -4 -6 -13 -8 -20 -5 -8 3 -21 -6 -29 -20 -20 -30 -49 -31 -131 -5 -240 76 -920 362 -993 418 -38 28 -62 77 -62 122 0 78 -98 249 -192 336 l-61 57 62 -32 c35 -17 66 -29 69 -25 13 12 -47 53 -140 96 -93 42 -97 46 -117 93 -22 53 -24 53 47 24 32 -12 35 -12 56 15 27 34 50 34 88 2 31 -27 50 -27 29 -1 -7 8 -14 32 -17 53 -5 37 -48 113 -65 113 -24 0 -2 18 56 45 36 17 65 34 65 39 0 16 -43 46 -67 46 -14 0 -44 -12 -69 -26 l-44 -26 -61 21 c-75 25 -115 55 -154 112 -37 56 -65 88 -88 101 -17 9 -17 8 -3 -19z"></path><path id="pHgQGr1l4" d="M4547 2785 c10 -13 26 -25 35 -25 26 0 48 -28 48 -61 0 -43 33 -100 73 -127 23 -15 56 -25 100 -29 l67 -6 0 52 c0 43 4 56 27 77 25 23 25 25 8 44 -21 23 -67 26 -85 5 -8 -9 -10 -28 -5 -53 8 -48 -13 -75 -51 -67 -13 3 -35 7 -48 10 -19 4 -24 13 -30 53 -3 26 -13 58 -22 71 -22 31 -93 81 -116 81 -18 0 -18 -1 -1 -25z"></path><path id="pEOhJq8lS" d="M4469 2506 c14 -14 32 -26 41 -26 13 0 23 -20 39 -74 36 -121 102 -194 185 -203 51 -6 64 6 72 73 4 27 13 55 22 62 21 16 95 15 162 -3 73 -20 77 -19 51 8 -36 40 -211 78 -262 59 -21 -9 -27 -19 -33 -58 -7 -57 -29 -84 -67 -84 -33 0 -40 10 -74 112 -27 80 -78 141 -130 153 l-30 7 24 -26z"></path><path id="pVgM6ELPB" d="M4580 2493 c0 -12 62 -59 88 -67 13 -4 61 -2 107 5 l83 13 -15 23 c-22 33 -45 36 -139 22 -65 -9 -87 -10 -96 -1 -14 14 -28 16 -28 5z"></path><path id="p17bFkcrS" d="M4500 2241 c0 -17 121 -121 148 -127 15 -4 32 -10 37 -15 6 -4 40 -6 75 -5 83 5 82 4 75 15 -5 9 12 23 40 33 6 1 9 7 7 13 -2 5 -4 18 -5 28 -1 10 -7 15 -14 13 -7 -3 -16 2 -21 10 -8 14 -12 12 -29 -10 -59 -75 -187 -66 -263 18 -33 35 -50 45 -50 27z"></path><path id="p12Pgct4vW" d="M2560 2157 c0 -19 9 -26 120 -87 123 -67 153 -97 191 -189 92 -221 149 -281 442 -456 114 -68 154 -87 195 -92 54 -6 104 -29 432 -200 204 -107 309 -147 345 -133 15 6 25 6 25 0 0 -4 -8 -11 -17 -13 -14 -4 -12 -5 5 -6 16 -1 22 5 22 20 0 17 -5 20 -25 17 -14 -3 -25 -1 -25 3 0 5 -26 16 -57 25 -81 23 -193 76 -536 253 -128 65 -188 91 -215 91 -20 1 -56 11 -80 23 -74 38 -249 149 -306 193 -56 44 -54 41 -155 256 -39 83 -114 166 -189 211 -137 82 -172 99 -172 84z"></path><path id="pm6kEFigg" d="M2440 2136 c0 -15 45 -56 62 -56 20 0 126 -81 185 -142 49 -50 75 -90 127 -193 96 -193 143 -236 411 -376 77 -40 163 -88 192 -106 63 -41 283 -143 482 -222 80 -33 186 -75 235 -95 48 -20 92 -33 97 -30 5 3 9 1 9 -4 0 -6 14 -15 30 -21 23 -7 30 -7 30 2 0 8 15 12 40 11 22 0 47 4 55 10 11 8 -3 11 -58 12 -64 1 -89 8 -222 62 -82 33 -224 92 -314 132 -91 39 -181 78 -200 86 -109 46 -478 243 -581 310 l-75 49 -71 144 c-77 154 -111 196 -261 325 -84 73 -173 125 -173 102z"></path><path id="p15fshSO8L" d="M4568 2066 c7 -95 57 -147 159 -163 l33 -6 0 45 c0 49 14 68 50 71 21 1 21 2 -5 24 -32 28 -73 39 -88 24 -6 -6 -13 -30 -16 -53 -5 -38 -9 -43 -31 -43 -22 0 -26 5 -30 45 -3 25 -16 59 -29 77 -39 53 -48 48 -43 -21z"></path><path id="pgFKKsFdC" d="M2610 1944 c8 -10 24 -26 36 -36 42 -34 86 -136 96 -221 15 -135 40 -165 252 -297 208 -130 469 -255 891 -427 116 -47 266 -110 333 -139 83 -36 129 -51 139 -46 15 9 -110 70 -322 157 -49 20 -103 43 -120 50 -16 7 -97 41 -180 76 -195 80 -396 169 -487 215 -146 74 -403 229 -428 259 -7 8 -16 50 -20 94 -10 92 -53 188 -120 264 -43 48 -102 92 -70 51z"></path><path id="pwa2HfdB" d="M2270 1932 c0 -13 28 -35 76 -62 76 -41 141 -152 209 -358 17 -50 36 -89 53 -104 52 -47 366 -228 642 -370 616 -317 674 -345 754 -363 72 -16 80 -16 88 -1 6 11 18 15 36 11 53 -9 -28 14 -154 44 -129 31 -101 17 -914 443 -162 85 -380 211 -404 233 -12 11 -42 74 -66 140 -52 140 -96 215 -167 288 -50 51 -153 118 -153 99z"></path><path id="ph19mxAU4" d="M2442 1919 c7 -11 35 -32 61 -45 81 -42 139 -156 163 -323 11 -77 18 -101 42 -130 40 -51 121 -96 202 -115 82 -18 214 -82 400 -193 192 -114 250 -142 311 -153 35 -5 115 -39 224 -93 157 -79 347 -164 404 -182 19 -6 23 -4 18 8 -4 11 -2 14 9 10 7 -3 14 -3 14 0 0 3 -24 13 -52 22 -115 38 -334 137 -503 228 -75 40 -128 62 -165 67 -34 5 -81 23 -122 47 -38 21 -137 77 -221 125 -191 109 -308 163 -381 177 -50 9 -96 26 -96 35 0 2 -7 42 -15 89 -31 178 -98 309 -197 384 -82 63 -117 78 -96 42z"></path><path id="pNFjF5AMK" d="M4560 1817 c0 -23 56 -65 95 -73 42 -7 125 3 125 16 0 24 -55 45 -111 42 -41 -3 -64 1 -83 13 -23 15 -26 15 -26 2z"></path><path id="pRe6alH43" d="M4482 1727 c10 -8 16 -16 13 -18 -8 -9 145 -80 156 -73 7 4 9 3 6 -3 -8 -12 43 -33 79 -33 13 0 26 5 29 10 6 10 -10 13 -57 10 -14 -1 -29 3 -33 9 -3 6 -2 11 4 11 15 0 63 51 56 59 -4 3 -14 -4 -22 -16 -22 -33 -62 -29 -151 14 -94 45 -102 48 -80 30z"></path><path id="pJEho0f0y" d="M4466 1596 c3 -7 14 -18 26 -23 12 -5 27 -29 37 -57 19 -58 61 -86 130 -86 49 0 52 6 6 14 -17 2 -32 5 -34 5 -2 1 1 7 7 14 8 10 2 12 -29 9 -37 -4 -45 2 -40 31 0 4 -3 7 -9 7 -5 0 -7 6 -4 14 3 8 -13 29 -37 50 -45 38 -62 45 -53 22z"></path><path id="pJMdcfuBU" d="M4793 1519 c-13 -5 -23 -10 -23 -11 0 -4 80 -7 80 -2 0 11 -38 20 -57 13z"></path><path id="p16SObdxEO" d="M4609 1330 c24 -21 57 -28 46 -10 -3 6 -15 10 -26 10 -11 0 -17 5 -14 10 3 6 -2 10 -12 10 -16 -1 -15 -3 6 -20z"></path><path id="p19czAYkF6" d="M4719 1311 c11 -7 11 -9 0 -14 -8 -3 0 -5 16 -5 17 0 24 2 17 5 -6 2 -10 8 -8 12 3 4 -5 8 -17 8 -15 2 -18 0 -8 -6z"></path><path id="pwHBdRKRD" d="M4393 1263 c9 -2 25 -2 35 0 9 3 1 5 -18 5 -19 0 -27 -2 -17 -5z"></path><path id="p4vOZ6yNY" d="M4375 1020 c-3 -5 -16 -11 -28 -11 -17 -1 -18 -2 -5 -6 10 -2 28 3 40 11 12 9 17 16 11 16 -7 0 -15 -4 -18 -10z"></path><path id="pTncTPkKG" d="M4398 863 c12 -2 32 -2 45 0 12 2 2 4 -23 4 -25 0 -35 -2 -22 -4z"></path><path id="p1CaZSkoRD" d="M4370 770 c-12 -7 -7 -12 20 -24 19 -8 37 -11 40 -7 3 5 12 11 20 15 8 3 0 4 -17 1 -21 -3 -32 0 -30 7 3 15 -15 20 -33 8z"></path><path id="pBIT7sfbp" d="M4293 693 c-7 -2 -13 -8 -13 -13 0 -11 99 -44 107 -36 4 3 -2 6 -13 6 -14 0 -16 2 -5 9 7 5 23 7 35 5 11 -3 -4 5 -34 16 -59 21 -59 21 -77 13z m45 -21 c2 -7 -2 -10 -12 -6 -9 3 -16 11 -16 16 0 13 23 5 28 -10z"></path><path id="pcsLU096M" d="M4153 665 c-3 -9 -4 -17 -2 -18 6 -4 124 -40 127 -38 1 0 11 -8 22 -19 12 -12 26 -17 36 -13 12 4 15 3 10 -5 -4 -7 13 -21 46 -37 29 -14 45 -19 35 -11 -14 11 -15 15 -5 20 7 3 3 3 -10 0 -15 -4 -22 -1 -20 8 2 8 -5 12 -20 11 -13 -2 -21 1 -17 7 7 12 -32 33 -47 24 -7 -4 -8 -3 -4 4 8 14 -50 46 -66 36 -7 -4 -8 -3 -4 5 5 7 -5 17 -28 26 -44 19 -45 19 -53 0z"></path><path id="ptVInRXar" d="M4563 503 c15 -2 37 -2 50 0 12 2 0 4 -28 4 -27 0 -38 -2 -22 -4z"></path><path id="p1AAjf8mwq" d="M4628 453 c18 -2 45 -2 60 0 15 2 0 4 -33 4 -33 0 -45 -2 -27 -4z"></path></g></g></svg>