<svg width="1440" height="350" viewBox="0 0 1440 350" fill="none" xmlns="http://www.w3.org/2000/svg">
<g clip-path="url(#clip0_41_31)">
<path d="M-0.733103 108.774L26.3475 108.705C53.3267 108.636 107.792 108.498 161.577 120.011C215.667 131.81 270.191 154.542 323.902 137.11C377.917 119.247 432.236 61.2168 485.976 55.0052C540.02 48.7927 594.605 95.8257 648.39 107.125C702.479 118.423 756.886 95.4135 810.686 112.573C864.79 130.161 919.403 187.914 973.129 176.342C1027.16 164.77 1081.42 82.4388 1135.14 70.8668C1189.17 59.2939 1243.79 117.048 1297.6 140.497C1351.72 163.945 1406.16 151.657 1459.97 175.106C1514.09 198.554 1568.7 256.308 1622.52 279.757C1676.64 303.205 1731.07 290.917 1784.7 238.463C1838.62 185.579 1892.85 92.5277 1946.62 97.966C2000.7 103.689 2055.43 208.614 2109.24 231.849C2163.36 254.797 2217.68 196.767 2271.36 167.184C2325.35 137.886 2379.81 137.748 2433.64 166.772C2487.78 196.081 2542.39 253.834 2596.13 248.123C2650.17 242.125 2704.46 171.944 2758.19 160.158C2812.22 148.085 2866.8 195.118 2920.59 206.417C2974.68 217.715 3029.08 194.705 3082.73 153.473C3136.69 112.239 3191.01 54.2086 3244.7 30.4864C3298.7 6.76338 3353.2 18.7752 3407.06 59.2346C3461.22 99.9791 3515.87 169.883 3569.73 210.628C3623.89 251.087 3678.38 263.099 3732.04 221.866C3785.99 180.632 3840.22 87.5807 3866.47 40.5568L3893.74 -6.18376L3894.63 344.028L3867.55 344.096C3840.57 344.165 3786.1 344.303 3732.35 344.44C3678.29 344.577 3623.82 344.716 3570.07 344.852C3516.01 344.989 3461.54 345.128 3407.79 345.264C3353.73 345.402 3299.26 345.54 3245.5 345.677C3191.45 345.814 3136.98 345.952 3083.22 346.089C3029.16 346.226 2974.7 346.365 2920.94 346.501C2866.88 346.638 2812.42 346.777 2758.66 346.913C2704.6 347.051 2650.14 347.189 2596.38 347.326C2542.32 347.463 2487.86 347.601 2434.1 347.738C2380.04 347.875 2325.58 348.014 2271.82 348.15C2217.76 348.287 2163.3 348.426 2109.54 348.562C2055.48 348.7 2001.01 348.838 1947.26 348.975C1893.2 349.112 1838.73 349.25 1784.98 349.387C1730.92 349.524 1676.45 349.663 1622.7 349.799C1568.64 349.936 1514.17 350.075 1460.42 350.211C1406.36 350.349 1351.89 350.487 1298.14 350.624C1244.08 350.761 1189.61 350.899 1135.85 351.036C1081.8 351.173 1027.33 351.312 973.574 351.448C919.514 351.585 865.049 351.724 811.293 351.86C757.234 351.998 702.768 352.136 649.013 352.273C594.953 352.41 540.487 352.548 486.732 352.685C432.672 352.822 378.207 352.961 324.451 353.097C270.391 353.234 215.926 353.373 162.17 353.509C108.111 353.647 53.6452 353.785 27.2745 353.852L-0.110343 353.922L-0.733103 108.774Z" fill="url(#paint0_linear_41_31)"/>
<path opacity="0.9" d="M-0.555166 178.816L26.481 161.237C53.4156 143.657 107.792 108.498 161.592 125.872C215.696 143.245 270.34 213.149 324.14 230.523C378.244 247.896 432.621 212.737 486.391 218.461C540.465 223.898 595.05 270.931 648.835 282.23C702.924 293.528 757.331 270.519 811.056 258.447C865.086 246.66 919.552 246.521 973.278 234.735C1027.31 222.662 1081.71 199.652 1135.48 205.091C1189.56 210.814 1244.11 245.697 1297.87 245.56C1351.93 245.423 1406.31 210.263 1460.05 204.266C1514.09 198.554 1568.61 221.287 1622.36 215.575C1676.4 209.577 1730.78 174.418 1784.49 156.771C1838.5 139.123 1892.97 138.984 1946.75 150.498C2000.84 162.296 2055.37 185.029 2109.09 173.457C2163.13 161.884 2217.47 114.574 2271.23 114.652C2325.29 114.3 2379.87 161.333 2433.72 196.003C2487.87 231.102 2542.39 253.834 2596.06 218.891C2650.03 183.518 2704.26 90.4665 2758.02 95.9047C2812.1 101.628 2866.83 206.553 2920.66 235.577C2974.8 264.886 3029.14 217.576 3082.87 206.004C3136.9 194.432 3191.42 217.164 3245.22 234.753C3299.33 251.911 3353.82 263.923 3407.52 240.201C3461.52 216.478 3515.84 158.448 3569.59 158.097C3623.65 158.174 3678.26 215.927 3732.1 245.237C3786.23 274.26 3840.69 274.122 3867.07 274.055L3894.45 273.985L3894.63 344.028L3867.55 344.096C3840.57 344.165 3786.1 344.303 3732.35 344.44C3678.29 344.577 3623.82 344.716 3570.07 344.852C3516.01 344.989 3461.54 345.128 3407.79 345.264C3353.73 345.402 3299.26 345.54 3245.5 345.677C3191.45 345.814 3136.98 345.952 3083.22 346.089C3029.16 346.226 2974.7 346.365 2920.94 346.501C2866.88 346.638 2812.42 346.777 2758.66 346.913C2704.6 347.051 2650.14 347.189 2596.38 347.326C2542.32 347.463 2487.86 347.601 2434.1 347.738C2380.04 347.875 2325.58 348.014 2271.82 348.15C2217.76 348.287 2163.3 348.426 2109.54 348.562C2055.48 348.7 2001.01 348.838 1947.26 348.975C1893.2 349.112 1838.73 349.25 1784.98 349.387C1730.92 349.524 1676.45 349.663 1622.7 349.799C1568.64 349.936 1514.17 350.075 1460.42 350.211C1406.36 350.349 1351.89 350.487 1298.14 350.624C1244.08 350.761 1189.61 350.899 1135.86 351.036C1081.8 351.173 1027.33 351.312 973.574 351.448C919.514 351.585 865.049 351.724 811.293 351.86C757.234 351.998 702.768 352.136 649.013 352.273C594.953 352.41 540.487 352.548 486.732 352.685C432.672 352.822 378.207 352.961 324.451 353.097C270.391 353.234 215.926 353.373 162.17 353.509C108.111 353.647 53.6452 353.785 27.2745 353.852L-0.110338 353.922L-0.555166 178.816Z" fill="url(#paint1_linear_41_31)"/>
<path opacity="0.8" d="M-0.466206 213.837L26.6293 219.629C53.6226 225.135 108.119 237.147 161.889 242.585C215.963 248.309 270.429 248.17 324.08 207.152C378.037 166.419 432.294 84.0878 485.991 60.8658C539.991 37.3573 594.545 72.2401 648.39 107.125C702.539 142.008 757.093 176.891 810.849 176.755C864.908 176.617 919.285 141.458 973.055 147.182C1027.13 152.619 1081.71 199.652 1135.56 234.323C1189.71 269.421 1244.23 292.153 1297.93 268.931C1351.93 245.423 1406.22 175.242 1459.87 134.224C1513.82 93.4906 1568.26 81.202 1622.07 104.651C1676.19 128.099 1730.81 185.853 1784.58 191.792C1838.65 197.73 1893 150.42 1946.74 144.708C2000.78 138.71 2055.34 173.593 2109.15 196.828C2163.27 219.776 2217.77 231.788 2271.57 248.947C2325.67 266.535 2380.2 289.268 2433.85 248.535C2487.81 207.516 2542 102.314 2595.71 84.6671C2649.73 67.0192 2704.37 136.923 2758.14 142.647C2812.22 148.085 2866.54 90.0542 2920.31 95.4925C2974.38 101.216 3029.02 171.12 3082.88 211.865C3137.05 252.324 3191.54 264.335 3245.27 252.263C3299.3 240.476 3353.67 205.316 3407.36 176.019C3461.34 146.436 3515.75 123.426 3569.52 128.865C3623.59 134.588 3678.15 169.471 3731.86 151.824C3785.87 134.176 3840.16 63.9951 3866.44 28.9069L3893.74 -6.18376L3894.63 344.028L3867.55 344.096C3840.57 344.165 3786.1 344.303 3732.35 344.44C3678.29 344.577 3623.82 344.716 3570.07 344.852C3516.01 344.989 3461.54 345.128 3407.79 345.264C3353.73 345.402 3299.26 345.54 3245.5 345.677C3191.45 345.814 3136.98 345.952 3083.22 346.089C3029.16 346.226 2974.7 346.365 2920.94 346.501C2866.88 346.638 2812.42 346.777 2758.66 346.913C2704.6 347.051 2650.14 347.189 2596.38 347.326C2542.32 347.463 2487.86 347.601 2434.1 347.738C2380.04 347.875 2325.58 348.014 2271.82 348.15C2217.76 348.287 2163.3 348.426 2109.54 348.562C2055.48 348.7 2001.01 348.838 1947.26 348.975C1893.2 349.112 1838.73 349.25 1784.98 349.387C1730.92 349.524 1676.45 349.663 1622.7 349.799C1568.64 349.936 1514.17 350.075 1460.42 350.211C1406.36 350.349 1351.89 350.487 1298.14 350.624C1244.08 350.761 1189.61 350.899 1135.85 351.036C1081.8 351.173 1027.33 351.312 973.574 351.448C919.514 351.585 865.049 351.724 811.293 351.86C757.234 351.998 702.768 352.136 649.013 352.273C594.953 352.41 540.487 352.548 486.732 352.685C432.672 352.822 378.207 352.961 324.451 353.097C270.391 353.234 215.926 353.373 162.17 353.509C108.111 353.647 53.6452 353.785 27.2745 353.852L-0.110343 353.922L-0.466206 213.837Z" fill="url(#paint2_linear_41_31)"/>
</g>
<defs>
<linearGradient id="paint0_linear_41_31" x1="-0.110343" y1="353.922" x2="-1" y2="3.71021" gradientUnits="userSpaceOnUse">
<stop stop-color="#2547DB"/>
<stop offset="1" stop-color="#E45BE0"/>
</linearGradient>
<linearGradient id="paint1_linear_41_31" x1="-0.110338" y1="353.922" x2="-0.748596" y2="102.673" gradientUnits="userSpaceOnUse">
<stop stop-color="#D58CEC"/>
<stop offset="1" stop-color="#E45BE0"/>
</linearGradient>
<linearGradient id="paint2_linear_41_31" x1="-0.110343" y1="353.922" x2="-1" y2="3.71021" gradientUnits="userSpaceOnUse">
<stop stop-color="#5259E0"/>
<stop offset="1"/>
</linearGradient>
<clipPath id="clip0_41_31">
<rect width="1460.53" height="350.213" fill="white" transform="translate(-1 3.71021) rotate(-0.145551)"/>
</clipPath>
</defs>
</svg>
